<svg width="70" height="70" viewBox="0 0 70 70" fill="none" xmlns="http://www.w3.org/2000/svg">
<path d="M50.166 1.16667H19.8327C17.2555 1.16667 15.166 3.25619 15.166 5.83334V8.16667H54.8327V4.66667C54.8327 3.25619 52.7432 1.16667 50.166 1.16667Z" fill="#CCE4FF"/>
<path d="M61.4334 26.0666L53.1836 31.0169L56.4831 34.3164L61.4334 26.0666Z" fill="#CCE4FF"/>
<path d="M53.1828 31.0169L48.2324 39.2668L56.4823 34.3164L53.1828 31.0169Z" fill="#CCE4FF"/>
<path d="M17.5 19.8333L3.5 24.5V50.1667L17.5 45.5V19.8333Z" fill="#CCE4FF"/>
<path d="M31.5 50.1667V24.5L17.5 19.8333V45.5L31.5 50.1667Z" fill="#CCE4FF"/>
<path d="M45.5 45.5V39.6553C42.3891 35.5156 42.3891 29.8178 45.5 25.6781V19.8333L31.5 24.5V50.1667L45.5 45.5Z" fill="#CCE4FF"/>
<path d="M15.166 61.8333V64.1667C15.166 66.7438 17.2555 68.8333 19.8327 68.8333H50.166C52.7432 68.8333 54.8327 66.7438 54.8327 65.3333V61.8333H15.166Z" fill="#CCE4FF"/>
<path d="M16.3333 9.33333H53.6667V18.6667H56V4.66667C56 2.56689 53.3084 0 50.1667 0H19.8333C16.613 0.00398764 14.004 2.61304 14 5.83333V17.5H16.3333V9.33333ZM19.8333 2.33333H50.1667C52.1884 2.33333 53.6667 3.96655 53.6667 4.66667V7H16.3333V5.83333C16.3333 3.90047 17.9005 2.33333 19.8333 2.33333Z" fill="#1E81CE"/>
<path d="M53.6667 60.6667H38.5V63H53.6667V64.1667C53.6667 66.0995 52.0995 67.6667 50.1667 67.6667H19.8333C17.9005 67.6667 16.3333 66.0995 16.3333 64.1667V63H31.5V60.6667H16.3333V50.1667H14V64.1667C14.004 67.387 16.613 69.996 19.8333 70H50.1667C53.387 69.996 55.996 67.387 56 64.1667V46.6667H53.6667V60.6667Z" fill="#1E81CE"/>
<path d="M33.834 60.6667H36.1673V63H33.834V60.6667Z" fill="#1E81CE"/>
<path d="M33.834 3.5H36.1673V5.83333H33.834V3.5Z" fill="#1E81CE"/>
<path d="M54.832 19.8333C51.8504 19.8419 48.9639 20.8844 46.6654 22.7836V19.8333C46.6654 19.4585 46.4848 19.1064 46.1806 18.8877C45.8764 18.6684 45.4856 18.6091 45.1301 18.7271L31.4987 23.2701L17.8673 18.7271C17.8388 18.7191 17.8092 18.7128 17.7801 18.7088C17.6434 18.6775 17.5033 18.6667 17.3631 18.6769C17.313 18.6843 17.264 18.6969 17.215 18.7088C17.186 18.7168 17.158 18.7179 17.1301 18.7271L3.13013 23.3937C2.65389 23.5527 2.3326 23.9981 2.33203 24.5V50.1667C2.33203 50.811 2.85441 51.3333 3.4987 51.3333C3.62402 51.3333 3.74878 51.3128 3.86727 51.2729L17.4987 46.7299L31.1301 51.2729C31.366 51.3521 31.6217 51.3521 31.8582 51.2729L45.8582 46.6063C46.3378 46.4508 46.6637 46.0042 46.6654 45.5V42.5497C51.0261 46.1619 57.2388 46.4889 61.9551 43.3552C66.6713 40.2215 68.7756 34.3665 67.1344 28.9473C65.4938 23.5276 60.4945 19.8242 54.832 19.8333ZM4.66536 25.3414L16.332 21.4529V44.6586L4.66536 48.5471V25.3414ZM18.6654 21.4529L30.332 25.3414V48.5471L18.6654 44.6586V21.4529ZM44.332 44.6586L32.6654 48.5471V25.3414L44.332 21.4529V25.3027C41.2211 29.7227 41.2211 35.6204 44.332 40.0398V44.6586ZM46.4318 38.9563C43.6353 35.2324 43.6353 30.1083 46.4318 26.3844C48.2496 23.9503 51.0335 22.4242 54.063 22.202C57.0924 21.9792 60.0695 23.0821 62.2228 25.2246C61.844 24.8703 61.2772 24.8082 60.8311 25.0731L52.5813 30.024C52.5676 30.0326 52.5591 30.0474 52.5465 30.057C52.5055 30.0855 52.4668 30.1163 52.4298 30.1499C52.4076 30.1698 52.3785 30.1772 52.3574 30.1989C52.3363 30.2211 52.3284 30.2507 52.3084 30.2741C52.2748 30.3105 52.2441 30.3493 52.2161 30.3903C52.207 30.4045 52.1905 30.4125 52.1825 30.4279L47.2322 38.6783C46.9804 39.1044 47.0271 39.6439 47.349 40.0204C47.0203 39.686 46.7138 39.3306 46.4318 38.9563ZM53.4136 32.9002L54.5985 34.0851L51.6328 35.8647L53.4136 32.9002ZM56.2505 32.4331L55.0656 31.2482L58.0312 29.4686L56.2505 32.4331ZM54.832 43.1667C52.0937 43.1541 49.4681 42.0758 47.5113 40.16C47.7135 40.3315 47.9682 40.4277 48.2336 40.4334C48.4444 40.4329 48.6518 40.3753 48.8329 40.2677L57.0828 35.3162C57.0942 35.3093 57.0999 35.2974 57.1118 35.2894C57.179 35.2484 57.2423 35.2 57.2998 35.1458H57.3066C57.3135 35.139 57.3158 35.1282 57.3226 35.1202C57.3437 35.098 57.3625 35.0741 57.3801 35.049C57.4012 35.0234 57.4234 35 57.4417 34.9721C57.4604 34.9442 57.4713 34.9408 57.4815 34.922L62.4319 26.671C62.6979 26.2261 62.6358 25.6581 62.2798 25.2804C65.2659 28.2877 66.1495 32.7954 64.5208 36.7073C62.8916 40.6191 59.0697 43.1672 54.832 43.1667Z" fill="#1E81CE"/>
</svg>
