<svg width="67" height="67" viewBox="0 0 67 67" fill="none" xmlns="http://www.w3.org/2000/svg">
<g clip-path="url(#clip0)">
<path d="M64.6708 53.812L47.3876 64.8936C46.3802 65.5347 45.2158 65.8748 44.0252 65.8748H19.7817C13.8811 65.8748 12.2849 62.8526 12.2849 62.8526V62.5255H8.93555V49.1281H12.2849V49.2066C14.2343 46.2236 18.107 45.2031 20.5405 44.8498H20.5536C21.2732 44.7321 21.9928 44.6798 22.7123 44.6536H23.288C25.2113 44.6536 27.0691 45.3339 28.5475 46.5769C30.0129 47.8198 31.8707 48.5132 33.794 48.5132H38.6217C40.2702 48.5263 41.7748 49.4159 42.586 50.842L42.6645 50.9729C43.2533 52.0195 43.2925 53.2886 42.7823 54.3615C42.6383 54.6493 42.4552 54.924 42.2328 55.1595H44.3392C44.7317 55.1595 45.1242 55.0941 45.5036 54.9633L60.7065 49.6253L62.5643 48.9711C62.826 48.8795 63.1138 48.8403 63.3886 48.8403C64.1867 48.8534 64.9324 49.2459 65.4034 49.9C65.8352 50.5019 65.9922 51.2607 65.8613 51.9934C65.7043 52.7522 65.2857 53.3933 64.6708 53.812Z" fill="#BDDBFF"/>
<path d="M46.9052 12.2853C48.1408 12.2853 49.1425 11.2837 49.1425 10.048C49.1425 8.81245 48.1408 7.81079 46.9052 7.81079C45.6696 7.81079 44.668 8.81245 44.668 10.048C44.668 11.2837 45.6696 12.2853 46.9052 12.2853Z" fill="white"/>
<path d="M35.273 5.10252C34.9329 5.36419 34.5927 5.65202 34.2656 5.93986C34.5927 5.65202 34.9198 5.36419 35.273 5.10252Z" fill="#E3E7F2"/>
<path d="M34.2666 5.93987C34.2404 5.96603 34.2273 5.97912 34.2012 6.00528C34.2273 5.97912 34.2404 5.95295 34.2666 5.93987Z" fill="#E3E7F2"/>
<path d="M35.299 5.07635C35.2859 5.08944 35.2728 5.08944 35.2598 5.10252C35.2859 5.08944 35.299 5.08944 35.299 5.07635Z" fill="#E3E7F2"/>
<path d="M34.1999 5.9922C34.1084 6.08379 34.0037 6.16229 33.9121 6.25387C34.0037 6.17537 34.1084 6.08379 34.1999 5.9922Z" fill="#E3E7F2"/>
<path d="M45.2553 1.20369H45.216C45.4515 1.17752 45.687 1.16444 45.9225 1.15135C42.0368 1.3476 38.3342 2.74752 35.2988 5.08945C38.1248 2.90453 41.5527 1.51769 45.2553 1.20369Z" fill="#E3E7F2"/>
<path d="M46.6687 1.11209C46.5771 1.11209 46.4855 1.11209 46.3809 1.11209C46.4855 1.12517 46.5771 1.12517 46.6687 1.11209Z" fill="#E3E7F2"/>
<path d="M46.3808 1.12518C46.2892 1.12518 46.1976 1.12518 46.1191 1.13827C46.2107 1.12518 46.3023 1.12518 46.3808 1.12518Z" fill="#E3E7F2"/>
<path d="M46.1187 1.13826C46.0533 1.13826 45.9879 1.13826 45.9355 1.15134C45.9879 1.13826 46.0533 1.13826 46.1187 1.13826Z" fill="#E3E7F2"/>
<path d="M33.364 6.80336C33.3117 6.85569 33.2594 6.90803 33.207 6.96036C33.2594 6.90803 33.3117 6.85569 33.364 6.80336Z" fill="#E3E7F2"/>
<path d="M33.3613 6.80336C33.5052 6.65945 33.6492 6.51553 33.7931 6.37161C33.6492 6.51553 33.5052 6.64636 33.3613 6.80336Z" fill="#E3E7F2"/>
<path d="M50.8552 1.53076C49.4552 1.22985 48.0553 1.09901 46.6685 1.1121C46.747 1.1121 46.8255 1.1121 46.8909 1.1121C47.4666 1.1121 48.0291 1.15135 48.5786 1.20368C40.6894 1.88402 34.0692 7.39212 31.9497 15.0197C29.8301 22.6473 32.6692 30.7852 39.067 35.4298V39.7735L35.7177 42.4294L41.0819 38.1773C42.9528 38.7791 44.9153 39.0801 46.8778 39.0801C51.9149 39.0801 56.7427 37.0783 60.3014 33.5196C63.86 29.961 65.8618 25.1332 65.8618 20.0961C65.8749 11.134 59.621 3.40169 50.8552 1.53076ZM51.3654 32.3814H42.4294V27.9199H44.6667V21.2213H42.4294V16.7467H49.1281V27.9069H51.3654V32.3814Z" fill="#BDDBFF"/>
<path d="M32.6417 7.57529C32.524 7.7192 32.3931 7.85004 32.2754 7.99396C32.3931 7.85004 32.524 7.70612 32.6417 7.57529Z" fill="#E3E7F2"/>
<path d="M33.0101 7.15662C32.9447 7.23512 32.8662 7.31362 32.8008 7.37903C32.8793 7.31362 32.9447 7.23512 33.0101 7.15662Z" fill="#E3E7F2"/>
<path d="M32.7996 7.39212C32.7472 7.45754 32.6949 7.50987 32.6426 7.57529C32.6949 7.50987 32.7472 7.44445 32.7996 7.39212Z" fill="#E3E7F2"/>
<path d="M33.9127 6.25386C33.8734 6.29311 33.8342 6.33236 33.7949 6.35853C33.8342 6.33236 33.8734 6.29311 33.9127 6.25386Z" fill="#E3E7F2"/>
<path d="M33.206 6.96037C33.1406 7.02579 33.0752 7.09121 33.0098 7.16971C33.0752 7.09121 33.1406 7.02579 33.206 6.96037Z" fill="#E3E7F2"/>
<path d="M60.2093 53.812L42.9262 64.8936C41.9187 65.5347 40.7543 65.8748 39.5637 65.8748H19.7817C13.8811 65.8748 12.2849 62.8526 12.2849 62.8526V62.5255H8.93555V49.1281H12.2849V49.2066C14.2343 46.2236 18.107 45.2031 20.5405 44.8499H20.5536C21.8488 45.1377 23.0525 45.7264 24.073 46.5769C25.5384 47.8198 27.3962 48.5132 29.3195 48.5132H34.1472C35.7957 48.5263 37.3003 49.416 38.1115 50.842L38.19 50.9729C38.9619 52.3205 38.7787 54.0082 37.7582 55.1726H39.8647C40.2572 55.1726 40.6497 55.1072 41.0291 54.9764L42.7692 54.3615C42.6252 54.6493 42.4421 54.9241 42.2197 55.1596H44.3261C44.7186 55.1596 45.1111 55.0941 45.4905 54.9633L60.6934 49.6253C60.7719 49.7038 60.8504 49.7954 60.9158 49.887C61.3476 50.4888 61.5046 51.2476 61.3737 51.9803C61.2298 52.7522 60.8112 53.3933 60.2093 53.812Z" fill="#BDDBFF"/>
<path d="M48.5375 38.9885C47.1507 38.8707 45.7769 38.596 44.4555 38.1642L43.6836 38.7661C44.1938 38.8576 44.691 38.9362 45.2144 38.9885H45.2013C45.2144 38.9885 45.2274 38.9885 45.2405 38.9885C45.79 39.0408 46.3395 39.067 46.889 39.067C47.4516 39.0801 48.0011 39.0408 48.5375 38.9885Z" fill="white"/>
<path d="M34.4993 34.4616C34.3554 34.3439 34.2246 34.2261 34.0938 34.0953C34.2246 34.213 34.3554 34.3439 34.4993 34.4616Z" fill="#E3E7F2"/>
<path d="M33.9247 33.9383C33.8201 33.8336 33.7023 33.729 33.5977 33.6243C33.7023 33.729 33.8201 33.8336 33.9247 33.9383Z" fill="#E3E7F2"/>
<path d="M32.4324 32.3814C32.3408 32.2636 32.2361 32.1589 32.1445 32.0412C32.2361 32.1459 32.3408 32.2636 32.4324 32.3814Z" fill="#E3E7F2"/>
<path d="M33.3867 33.415C33.2951 33.3234 33.2166 33.2318 33.125 33.1402C33.2035 33.2318 33.2951 33.3234 33.3867 33.415Z" fill="#E3E7F2"/>
<path d="M31.0191 30.4712C31.006 30.445 30.9799 30.4189 30.9668 30.3927C30.9799 30.4189 30.993 30.445 31.0191 30.4712Z" fill="#E3E7F2"/>
<path d="M31.9486 31.7795C31.8963 31.7141 31.8439 31.6487 31.8047 31.5833C31.8439 31.6487 31.8963 31.7141 31.9486 31.7795Z" fill="#E3E7F2"/>
<path d="M31.4777 31.1515C31.4385 31.0992 31.4123 31.0599 31.373 31.0076C31.4123 31.0599 31.4385 31.0992 31.4777 31.1515Z" fill="#E3E7F2"/>
<path d="M32.8769 32.8916C32.7853 32.8 32.7068 32.7085 32.6152 32.6038C32.7068 32.6954 32.7984 32.787 32.8769 32.8916Z" fill="#E3E7F2"/>
<path d="M31.0977 9.57703C31.1631 9.47236 31.2416 9.3677 31.3201 9.26303C31.2416 9.3677 31.1762 9.47236 31.0977 9.57703Z" fill="#E3E7F2"/>
<path d="M35.1011 34.9588C34.9441 34.841 34.8002 34.7102 34.6562 34.5925C34.8002 34.7102 34.9441 34.841 35.1011 34.9588Z" fill="#E3E7F2"/>
<path d="M31.8438 8.53036C31.9746 8.36028 32.1054 8.1902 32.2493 8.02011C32.1185 8.1902 31.9746 8.36028 31.8438 8.53036Z" fill="#E3E7F2"/>
<path d="M31.7788 8.62195C31.6742 8.76586 31.5695 8.90978 31.4648 9.0537C31.5695 8.90978 31.6742 8.76586 31.7788 8.62195Z" fill="#E3E7F2"/>
<path d="M30.8234 10.0088C30.7842 10.0611 30.758 10.1134 30.7188 10.1658C30.758 10.1265 30.7842 10.0742 30.8234 10.0088Z" fill="#E3E7F2"/>
<path d="M35.729 35.4298C35.5589 35.299 35.3888 35.1812 35.2188 35.0504C35.3888 35.1812 35.5458 35.299 35.729 35.4298Z" fill="#E3E7F2"/>
<path d="M62.5369 48.9973L60.6791 49.6515L45.7902 54.8848C45.7117 54.9895 45.6332 55.0941 45.5547 55.1857H47.6611C48.0536 55.1857 48.4461 55.1203 48.8255 54.9895L64.0284 49.6515L64.8134 49.3767C64.3948 49.0496 63.8845 48.8665 63.3612 48.8665C63.0864 48.8665 62.7986 48.9057 62.5369 48.9973Z" fill="white"/>
<path d="M11.1733 46.8908V48.0029H4.47461V63.6376C4.47461 64.2525 4.97178 64.7497 5.5867 64.7497H11.1733C11.7882 64.7497 12.2854 64.2525 12.2854 63.6376V48.0029C12.2854 47.388 11.7882 46.8908 11.1733 46.8908Z" fill="#BDDBFF"/>
<path d="M0.694055 55.7352C0.759472 55.7614 0.824888 55.7875 0.890305 55.8006C0.968806 55.8137 1.03422 55.8268 1.11272 55.8268C1.41364 55.8268 1.68839 55.709 1.91081 55.4997C2.32948 55.0549 2.32948 54.3615 1.91081 53.9166C1.80614 53.812 1.67531 53.7335 1.54447 53.6811C1.41364 53.6288 1.26972 53.5895 1.12581 53.5895C0.824889 53.5895 0.550137 53.7073 0.32772 53.9166C-0.104032 54.3615 -0.104032 55.068 0.32772 55.4997L0.497804 55.6305C0.563221 55.6698 0.628638 55.709 0.694055 55.7352Z" fill="#1E81CE"/>
<path d="M2.23726 65.8748H11.1732C11.8405 65.8748 12.4685 65.5739 12.8871 65.0506C14.9151 66.4374 17.3355 67.1178 19.769 66.9869H44.0125C45.4124 66.9869 46.7993 66.5813 47.9768 65.8225L65.2599 54.7409C66.1234 54.1783 66.7122 53.2886 66.9084 52.2681C67.1047 51.2214 66.8822 50.1355 66.2673 49.272C65.3384 47.9768 63.6768 47.4403 62.1591 47.9506L45.0853 53.9428C44.8368 54.0344 44.5751 54.0736 44.3134 54.0736H44.0518C44.3919 52.8569 44.2349 51.5616 43.62 50.4626L43.5284 50.3056C42.521 48.5263 40.637 47.4273 38.596 47.4142H33.7682C32.1066 47.4011 30.4974 46.8123 29.2283 45.7395C27.5536 44.3396 25.4472 43.5677 23.2623 43.5546H22.6997C22.4249 43.5546 16.6944 43.6069 13.0049 46.76C12.5862 46.1582 11.9059 45.7918 11.1732 45.7918H2.31576C2.27651 45.7918 2.15876 45.7918 2.02792 45.8049C1.15134 45.8834 0.392501 46.4853 0.11775 47.3226C0.0392501 47.5581 0 47.7936 0 48.0422V50.2664C0 50.8813 0.497169 51.3784 1.11209 51.3784C1.72701 51.3784 2.22417 50.8813 2.22417 50.2664V48.0422C2.23726 48.016 2.21109 48.0291 2.21109 48.0291C2.22417 48.0291 2.22417 48.0291 2.22417 48.0291C2.21109 48.0291 2.22417 48.0291 2.30268 48.0291H11.1601V63.6637H2.22417V59.2023C2.22417 58.5874 1.72701 58.0902 1.11209 58.0902C0.497169 58.0902 0 58.5874 0 59.2023V63.6637C0.0130834 64.8674 1.00742 65.8748 2.23726 65.8748ZM22.7128 45.7788H23.2753C24.9369 45.7918 26.5462 46.3806 27.8153 47.4403C29.4899 48.8534 31.5964 49.6253 33.7813 49.6384H38.6091C39.8389 49.6384 40.9902 50.3056 41.5921 51.3915L41.6837 51.5485C42.1285 52.3335 42.1023 53.3017 41.6313 54.0736H36.1363C34.2654 54.0736 32.4337 54.6624 30.8899 55.7483L30.2226 56.2193C29.8955 56.4548 29.7124 56.8342 29.7516 57.2267C29.7909 57.6192 30.0264 57.9725 30.3927 58.1425C30.759 58.3126 31.1777 58.2734 31.5048 58.0379L32.172 57.5669C33.3365 56.7426 34.7102 56.2978 36.1363 56.2978H44.3396C44.8629 56.2978 45.3732 56.2062 45.8703 56.0361L62.918 50.057C63.4937 49.8608 64.1347 50.0701 64.4749 50.5673C64.7366 50.9336 64.8282 51.4046 64.7366 51.8494C64.6712 52.2681 64.4226 52.6344 64.0824 52.8699L46.8123 63.9385C45.9881 64.4618 45.0199 64.7497 44.0387 64.7497H19.7821C15.5169 64.7497 13.8553 63.075 13.4105 62.4993V49.5468C16.1318 45.8311 22.6473 45.7788 22.7128 45.7788Z" fill="#1E81CE"/>
<path d="M6.38542 59.9612C6.49009 59.8565 6.56859 59.7257 6.62092 59.5948C6.67325 59.464 6.7125 59.3201 6.7125 59.1762C6.7125 58.8752 6.59475 58.6005 6.38542 58.3781C5.95367 57.9463 5.24716 57.9463 4.80233 58.3781C4.37058 58.8098 4.37058 59.5163 4.80233 59.9612C5.23408 60.406 5.94058 60.3929 6.38542 59.9612Z" fill="#1E81CE"/>
<path d="M46.904 13.3974C48.7488 13.3974 50.2534 11.8928 50.2534 10.048C50.2534 8.20327 48.7488 6.69868 46.904 6.69868C45.0593 6.69868 43.5547 8.20327 43.5547 10.048C43.5547 11.8928 45.0462 13.3974 46.904 13.3974ZM46.904 8.93594C47.519 8.93594 48.0161 9.43311 48.0161 10.048C48.0161 10.6629 47.519 11.1601 46.904 11.1601C46.2891 11.1601 45.7919 10.6629 45.7919 10.048C45.7789 9.43311 46.276 8.93594 46.904 8.93594Z" fill="#1E81CE"/>
<path d="M51.365 26.7948H50.2529V16.7467C50.2529 16.4458 50.1352 16.1711 49.9259 15.9617C49.7165 15.7524 49.4287 15.6346 49.1409 15.6346H42.4422C42.1412 15.6346 41.8665 15.7524 41.6572 15.9617C41.4478 16.1711 41.3301 16.4589 41.3301 16.7467V21.2082C41.3301 21.5091 41.4478 21.7838 41.6572 21.9932C41.8665 22.2025 42.1543 22.3203 42.4422 22.3203H43.5543V26.7817H42.4422C42.1412 26.7817 41.8665 26.8994 41.6572 27.1088C41.4478 27.3181 41.3301 27.6059 41.3301 27.8938V32.3552C41.3301 32.6561 41.4478 32.9309 41.6572 33.1402C41.8665 33.3495 42.1543 33.4673 42.4422 33.4673H51.3781C51.679 33.4673 51.9538 33.3495 52.1631 33.1402C52.3725 32.9309 52.4902 32.643 52.4902 32.3552V27.8938C52.4902 27.5929 52.3725 27.3181 52.1631 27.1088C51.9407 26.9125 51.666 26.7948 51.365 26.7948ZM50.2529 31.2562H43.5543V29.0189H44.6663C44.9673 29.0189 45.242 28.9012 45.4513 28.6919C45.6607 28.4825 45.7784 28.1947 45.7784 27.9069V21.2082C45.7784 20.9072 45.6607 20.6325 45.4513 20.4232C45.242 20.2138 44.9542 20.0961 44.6663 20.0961H43.5543V17.8588H48.0157V27.9069C48.0157 28.2078 48.1334 28.4825 48.3428 28.6919C48.5521 28.9012 48.8399 29.0189 49.1278 29.0189H50.2399L50.2529 31.2562Z" fill="#1E81CE"/>
<path d="M46.9041 0C38.3083 0 30.6545 5.46885 27.8808 13.6067C25.1072 21.7446 27.8154 30.7459 34.6188 35.9924V42.4163C34.6188 42.8481 34.8674 43.2406 35.2468 43.4237C35.6262 43.6069 36.0841 43.5546 36.4243 43.2929L41.3306 39.4071C48.8797 41.579 57.0044 39.1586 62.12 33.2056C67.2356 27.2527 68.4262 18.8532 65.1554 11.7227C61.8845 4.57918 54.7541 0 46.9041 0ZM46.9041 37.9549C45.0593 37.9549 43.2146 37.6671 41.4483 37.1045C41.095 36.9867 40.7025 37.0652 40.4147 37.2876L36.856 40.1137V35.4298C36.856 35.0765 36.686 34.7364 36.3981 34.527C29.3069 29.3591 27.0173 19.7952 31.0208 11.9713C35.0244 4.14743 44.0911 0.405585 52.4383 3.12693C60.7855 5.84827 65.9142 14.2347 64.5405 22.909C63.1667 31.5833 55.683 37.968 46.9041 37.9549Z" fill="#1E81CE"/>
</g>
<defs>
<clipPath id="clip0">
<rect width="67" height="67" fill="white"/>
</clipPath>
</defs>
</svg>
