<svg width="91" height="63" viewBox="0 0 91 63" fill="none" xmlns="http://www.w3.org/2000/svg">
<path d="M90.0394 55.9364V49.8273C88.8174 49.8273 87.6454 49.3446 86.7813 48.4853C85.9172 47.626 85.4318 46.4606 85.4318 45.2455C85.4318 44.0303 85.9172 42.8649 86.7813 42.0056C87.6454 41.1464 88.8174 40.6636 90.0394 40.6636V28.4455C88.8174 28.4455 87.6454 27.9627 86.7813 27.1035C85.9172 26.2442 85.4318 25.0788 85.4318 23.8636C85.4318 22.6485 85.9172 21.4831 86.7813 20.6238C87.6454 19.7645 88.8174 19.2818 90.0394 19.2818V13.1727H47.0352V55.9364H90.0394ZM51.6428 31.5L63.9297 28.4455V22.3364C63.9297 21.5263 64.2533 20.7493 64.8294 20.1765C65.4054 19.6036 66.1867 19.2818 67.0014 19.2818C67.8161 19.2818 68.5974 19.6036 69.1734 20.1765C69.7495 20.7493 70.0731 21.5263 70.0731 22.3364V28.4455L82.36 31.5V34.5546H70.0731V45.2455L77.7525 46.7727V49.8273H56.2503V46.7727L63.9297 45.2455V34.5546H51.6428V31.5Z" fill="#9BC9FF"/>
<path d="M31.5087 14.7C29.7365 12.9839 27.4219 11.9302 24.9575 11.7175C22.4931 11.5049 20.0306 12.1464 17.9877 13.5333C15.9447 14.9202 14.447 16.9671 13.7486 19.3268C13.0502 21.6865 13.1941 24.2138 14.1558 26.4801C15.1175 28.7464 16.838 30.6121 19.0253 31.7608C21.2126 32.9096 23.7322 33.2707 26.1567 32.7828C28.5812 32.295 30.7614 30.9882 32.3275 29.0842C33.8936 27.1802 34.7493 24.7962 34.7493 22.3364C34.7493 20.9128 34.4625 19.5037 33.9059 18.1922C33.3493 16.8806 32.5342 15.6932 31.5087 14.7Z" fill="#9BC9FF"/>
<path d="M90.0401 48.8727C89.0727 48.8727 88.1449 48.4906 87.4608 47.8103C86.7767 47.1301 86.3924 46.2075 86.3924 45.2455C86.3924 44.2834 86.7767 43.3608 87.4608 42.6806C88.1449 42.0003 89.0727 41.6182 90.0401 41.6182C90.2947 41.6182 90.5388 41.5176 90.7188 41.3386C90.8989 41.1596 91 40.9168 91 40.6636V28.4455C91 28.1923 90.8989 27.9495 90.7188 27.7705C90.5388 27.5915 90.2947 27.4909 90.0401 27.4909C89.0727 27.4909 88.1449 27.1088 87.4608 26.4285C86.7767 25.7483 86.3924 24.8256 86.3924 23.8636C86.3924 22.9016 86.7767 21.979 87.4608 21.2988C88.1449 20.6185 89.0727 20.2364 90.0401 20.2364C90.2947 20.2364 90.5388 20.1358 90.7188 19.9568C90.8989 19.7778 91 19.535 91 19.2818V13.1727C91 12.9196 90.8989 12.6768 90.7188 12.4978C90.5388 12.3187 90.2947 12.2182 90.0401 12.2182H48.5717C48.419 12.2182 48.2725 12.1578 48.1645 12.0504C48.0565 11.943 47.9958 11.7974 47.9958 11.6455V2.48182C47.9958 1.8236 47.7328 1.19234 47.2648 0.726908C46.7967 0.261477 46.1619 0 45.5 0H4.03165C2.96239 0 1.93692 0.422385 1.18084 1.17424C0.424761 1.92609 0 2.94581 0 4.00909L0 58.9909C0 60.0542 0.424761 61.0739 1.18084 61.8258C1.93692 62.5776 2.96239 63 4.03165 63H45.5C46.1619 63 46.7967 62.7385 47.2648 62.2731C47.7328 61.8077 47.9958 61.1764 47.9958 60.5182V57.4636C47.9958 57.3117 48.0565 57.1661 48.1645 57.0587C48.2725 56.9513 48.419 56.8909 48.5717 56.8909H90.0401C90.2947 56.8909 90.5388 56.7903 90.7188 56.6113C90.8989 56.4323 91 56.1895 91 55.9364V49.8273C91 49.5741 90.8989 49.3313 90.7188 49.1523C90.5388 48.9733 90.2947 48.8727 90.0401 48.8727ZM46.0759 60.5182C46.0759 60.6701 46.0153 60.8158 45.9073 60.9232C45.7992 61.0306 45.6528 61.0909 45.5 61.0909H4.03165C3.75432 61.0909 3.47971 61.0366 3.22349 60.9311C2.96727 60.8255 2.73447 60.6708 2.53837 60.4758C2.34227 60.2808 2.18671 60.0493 2.08058 59.7945C1.97445 59.5398 1.91983 59.2667 1.91983 58.9909V4.00909C1.91983 3.45214 2.14233 2.91799 2.53837 2.52417C2.93441 2.13034 3.47156 1.90909 4.03165 1.90909H45.5C45.6528 1.90909 45.7992 1.96943 45.9073 2.07684C46.0153 2.18425 46.0759 2.32992 46.0759 2.48182V60.5182ZM89.0802 54.4091C89.0802 54.561 89.0195 54.7067 88.9115 54.8141C88.8035 54.9215 88.657 54.9818 88.5042 54.9818H48.5717C48.419 54.9818 48.2725 54.9215 48.1645 54.8141C48.0565 54.7067 47.9958 54.561 47.9958 54.4091V14.7C47.9958 14.5481 48.0565 14.4024 48.1645 14.295C48.2725 14.1876 48.419 14.1273 48.5717 14.1273H88.5042C88.657 14.1273 88.8035 14.1876 88.9115 14.295C89.0195 14.4024 89.0802 14.5481 89.0802 14.7V17.9455C89.0804 18.0726 89.0381 18.1962 88.9599 18.2968C88.8816 18.3974 88.772 18.4692 88.6482 18.501C87.4521 18.8071 86.3923 19.5 85.6356 20.4706C84.8789 21.4412 84.4682 22.6345 84.4682 23.8627C84.4682 25.0908 84.8789 26.2841 85.6356 27.2548C86.3923 28.2254 87.4521 28.9183 88.6482 29.2244C88.7723 29.2562 88.8822 29.3284 88.9604 29.4293C89.0387 29.5303 89.0808 29.6543 89.0802 29.7818V39.3273C89.0804 39.4544 89.0381 39.578 88.9599 39.6786C88.8816 39.7792 88.772 39.851 88.6482 39.8828C87.4521 40.1889 86.3923 40.8818 85.6356 41.8524C84.8789 42.823 84.4682 44.0163 84.4682 45.2445C84.4682 46.4727 84.8789 47.666 85.6356 48.6366C86.3923 49.6072 87.4521 50.3001 88.6482 50.6062C88.7723 50.638 88.8822 50.7102 88.9604 50.8112C89.0387 50.9121 89.0808 51.0362 89.0802 51.1636V54.4091Z" fill="#1E81CE"/>
<path d="M71.6098 35.5091H82.3608C82.6154 35.5091 82.8596 35.4085 83.0396 35.2295C83.2196 35.0505 83.3207 34.8077 83.3207 34.5545V31.5C83.3207 31.2871 83.249 31.0803 83.1172 30.9125C82.9854 30.7447 82.8009 30.6256 82.5931 30.5741L71.4696 27.8097C71.3451 27.7787 71.2346 27.7071 71.1556 27.6065C71.0767 27.5058 71.0338 27.3818 71.0338 27.2542V22.3364C71.0338 21.2731 70.6091 20.2534 69.853 19.5015C69.0969 18.7497 68.0714 18.3273 67.0022 18.3273C65.9329 18.3273 64.9074 18.7497 64.1514 19.5015C63.3953 20.2534 62.9705 21.2731 62.9705 22.3364V27.2523C62.9705 27.3799 62.9276 27.5039 62.8487 27.6046C62.7697 27.7052 62.6592 27.7768 62.5347 27.8078L51.4112 30.5722C51.2031 30.6238 51.0184 30.7432 50.8866 30.9114C50.7547 31.0795 50.6832 31.2867 50.6836 31.5V34.5545C50.6836 34.8077 50.7847 35.0505 50.9648 35.2295C51.1448 35.4085 51.3889 35.5091 51.6435 35.5091H62.3946C62.5473 35.5091 62.6938 35.5694 62.8018 35.6768C62.9098 35.7842 62.9705 35.9299 62.9705 36.0818V43.9931C62.9705 44.1254 62.9243 44.2536 62.84 44.3559C62.7556 44.4582 62.6383 44.5283 62.5078 44.5544L56.0591 45.8373C55.8423 45.8813 55.6474 45.9984 55.5075 46.1689C55.3676 46.3394 55.2911 46.5527 55.2912 46.7727V49.8273C55.2912 50.0804 55.3923 50.3232 55.5723 50.5022C55.7524 50.6812 55.9965 50.7818 56.2511 50.7818H77.7532C78.0078 50.7818 78.252 50.6812 78.432 50.5022C78.612 50.3232 78.7131 50.0804 78.7131 49.8273V46.7727C78.7132 46.5527 78.6368 46.3394 78.4968 46.1689C78.3569 45.9984 78.162 45.8813 77.9452 45.8373L71.4965 44.5544C71.3661 44.5283 71.2487 44.4582 71.1643 44.3559C71.08 44.2536 71.0339 44.1254 71.0338 43.9931V36.0818C71.0338 36.0066 71.0487 35.9321 71.0777 35.8626C71.1066 35.7932 71.149 35.73 71.2025 35.6768C71.256 35.6237 71.3195 35.5815 71.3894 35.5527C71.4592 35.5239 71.5341 35.5091 71.6098 35.5091ZM71.0338 30.4023C71.0338 30.3152 71.0538 30.2293 71.0922 30.151C71.1306 30.0728 71.1865 30.0042 71.2555 29.9507C71.3245 29.8971 71.405 29.8599 71.4906 29.8419C71.5763 29.8239 71.665 29.8255 71.7499 29.8467L80.9651 32.1376C81.0896 32.1687 81.2001 32.2402 81.2791 32.3409C81.358 32.4415 81.4009 32.5655 81.4009 32.6932V33.0273C81.4009 33.1792 81.3402 33.3248 81.2322 33.4323C81.1242 33.5397 80.9777 33.6 80.825 33.6H71.6098C71.457 33.6 71.3105 33.5397 71.2025 33.4323C71.0945 33.3248 71.0338 33.1792 71.0338 33.0273V30.4023ZM62.3946 33.6H53.1794C53.0266 33.6 52.8801 33.5397 52.7721 33.4323C52.6641 33.3248 52.6034 33.1792 52.6034 33.0273V32.6932C52.6034 32.5655 52.6463 32.4415 52.7253 32.3409C52.8042 32.2402 52.9147 32.1687 53.0392 32.1376L62.2544 29.8467C62.3394 29.8255 62.428 29.8239 62.5137 29.8419C62.5994 29.8599 62.6798 29.8971 62.7488 29.9507C62.8179 30.0042 62.8737 30.0728 62.9122 30.151C62.9506 30.2293 62.9705 30.3152 62.9705 30.4023V33.0273C62.9705 33.1792 62.9098 33.3248 62.8018 33.4323C62.6938 33.5397 62.5473 33.6 62.3946 33.6ZM63.8018 48.6341C63.7486 48.7078 63.6786 48.7678 63.5975 48.8093C63.5164 48.8508 63.4265 48.8725 63.3353 48.8727H57.787C57.6342 48.8727 57.4877 48.8124 57.3797 48.705C57.2717 48.5976 57.211 48.4519 57.211 48.3V48.0251C57.2111 47.8928 57.2572 47.7646 57.3416 47.6623C57.4259 47.56 57.5433 47.4898 57.6737 47.4638L62.7881 46.4463C62.9258 46.4192 63.0687 46.443 63.19 46.5134C63.3113 46.5837 63.4025 46.6956 63.4466 46.8281L63.8786 48.1205C63.9074 48.2061 63.9154 48.2972 63.9021 48.3865C63.8887 48.4757 63.8544 48.5606 63.8018 48.6341ZM69.114 44.9973C69.1143 45.0589 69.1045 45.1201 69.0852 45.1786L67.9774 48.4814C67.9391 48.5955 67.8657 48.6947 67.7674 48.7649C67.6692 48.8352 67.5513 48.8729 67.4303 48.8727H66.574C66.4531 48.8729 66.3351 48.8352 66.2369 48.7649C66.1387 48.6947 66.0652 48.5955 66.0269 48.4814L64.9192 45.1786C64.8998 45.1201 64.8901 45.0589 64.8904 44.9973V22.3364C64.8904 21.7794 65.1129 21.2453 65.5089 20.8514C65.9049 20.4576 66.4421 20.2364 67.0022 20.2364C67.5623 20.2364 68.0994 20.4576 68.4954 20.8514C68.8915 21.2453 69.114 21.7794 69.114 22.3364V44.9973ZM71.2162 46.4463L76.3306 47.4638C76.4611 47.4898 76.5784 47.56 76.6628 47.6623C76.7471 47.7646 76.7933 47.8928 76.7933 48.0251V48.3C76.7933 48.4519 76.7326 48.5976 76.6246 48.705C76.5166 48.8124 76.3701 48.8727 76.2174 48.8727H70.671C70.5796 48.8729 70.4895 48.8514 70.4082 48.8101C70.3268 48.7687 70.2565 48.7088 70.2031 48.6351C70.1496 48.5614 70.1145 48.4762 70.1008 48.3864C70.087 48.2966 70.0949 48.2048 70.1238 48.1186L70.5558 46.8262C70.6003 46.6936 70.692 46.5819 70.8137 46.5119C70.9353 46.4419 71.0785 46.4186 71.2162 46.4463Z" fill="#1E81CE"/>
<path d="M23.9973 10.6909C23.5868 10.692 23.1767 10.7143 22.7686 10.7577C19.7477 11.0817 16.9734 12.5658 15.0366 14.8938C13.0998 17.2218 12.1537 20.2097 12.3996 23.2212C12.6456 26.2327 14.0642 29.0297 16.3534 31.0164C18.6425 33.0031 21.6213 34.0226 24.6551 33.8576C27.689 33.6926 30.5382 32.3562 32.5958 30.1331C34.6534 27.91 35.7569 24.9759 35.6711 21.9557C35.5854 18.9355 34.3172 16.0679 32.1366 13.9638C29.9561 11.8597 27.0356 10.6854 23.9973 10.6909ZM28.5549 14.0509C28.6514 13.9995 28.7606 13.9766 28.8698 13.9847C28.9789 13.9928 29.0835 14.0317 29.1712 14.0967L29.2038 14.1139C29.2699 14.1465 29.334 14.1828 29.3958 14.2227L29.4169 14.2361C29.4961 14.2883 29.5611 14.3593 29.6061 14.4425C29.651 14.5258 29.6745 14.6189 29.6745 14.7134C29.6745 14.8079 29.651 14.9009 29.6061 14.9842C29.5611 15.0675 29.4961 15.1384 29.4169 15.1906C29.3747 15.2174 29.3305 15.2422 29.2864 15.2651L29.2518 15.2842C29.1583 15.3414 29.0506 15.3718 28.9408 15.372C28.8815 15.3723 28.8226 15.3632 28.7661 15.3453C28.6863 15.3206 28.6129 15.279 28.5509 15.2233C28.4889 15.1676 28.4398 15.0991 28.4071 15.0226L28.3706 14.9367C28.3457 14.8775 28.3226 14.8222 28.2996 14.7649C28.2474 14.6354 28.2445 14.4914 28.2915 14.3599C28.3385 14.2284 28.4322 14.1186 28.5549 14.0509ZM21.4074 15.7462C22.0659 13.9765 22.9164 12.852 23.7381 12.6592C23.7815 12.649 23.8259 12.6439 23.8705 12.6439H24.1259C24.1678 12.6438 24.2097 12.6483 24.2507 12.6573C25.08 12.8482 25.9344 13.965 26.5909 15.7481C26.6205 15.8252 26.6329 15.9077 26.6274 15.99C26.6219 16.0723 26.5985 16.1525 26.559 16.225C26.5194 16.2975 26.4645 16.3607 26.3982 16.4102C26.3318 16.4597 26.2554 16.4943 26.1743 16.5117C24.7417 16.8221 23.2586 16.8221 21.8259 16.5117C21.7448 16.4943 21.6685 16.4597 21.6021 16.4102C21.5357 16.3607 21.4809 16.2975 21.4413 16.225C21.4017 16.1525 21.3784 16.0723 21.3729 15.99C21.3674 15.9077 21.3798 15.8252 21.4093 15.7481L21.4074 15.7462ZM16.6501 28.4149H16.5733C16.4977 28.4051 16.4249 28.3805 16.359 28.3424C16.2931 28.3044 16.2354 28.2538 16.1893 28.1935C14.9053 26.5107 14.2102 24.4564 14.2102 22.344C14.2102 20.2317 14.9053 18.1773 16.1893 16.4945C16.2818 16.3739 16.4187 16.2947 16.5698 16.2743C16.721 16.2539 16.8741 16.294 16.9956 16.3857C17.4772 16.7499 17.9861 17.0766 18.5181 17.3632C18.6242 17.4198 18.7098 17.5081 18.7628 17.6156C18.8158 17.7232 18.8336 17.8445 18.8137 17.9626C18.2996 20.8573 18.2996 23.8192 18.8137 26.7139C18.8348 26.8322 18.818 26.9541 18.7657 27.0624C18.7133 27.1706 18.628 27.2598 18.5219 27.3172C17.9899 27.6044 17.481 27.9318 16.9995 28.2965C16.8992 28.3731 16.7764 28.4146 16.6501 28.4149ZM19.5087 30.5741C19.4095 30.6471 19.2894 30.6865 19.166 30.6865C19.0426 30.6865 18.9225 30.6471 18.8233 30.5741L18.7676 30.5436C18.7216 30.5187 18.6755 30.492 18.6294 30.4634C18.5427 30.4151 18.47 30.3454 18.4184 30.2609C18.3668 30.1764 18.338 30.0801 18.3349 29.9814C18.3319 29.8826 18.3545 29.7847 18.4007 29.6972C18.4469 29.6097 18.5151 29.5356 18.5987 29.4821C18.6332 29.4592 18.6697 29.4401 18.7062 29.421L18.7331 29.4057C18.8039 29.3532 18.8862 29.318 18.9733 29.303C19.0603 29.2881 19.1497 29.2939 19.2341 29.3198C19.3192 29.3462 19.3969 29.3918 19.4612 29.4531C19.5255 29.5144 19.5746 29.5897 19.6047 29.673C19.6162 29.7055 19.6296 29.736 19.6431 29.7665C19.6565 29.7971 19.6834 29.862 19.7026 29.9135C19.7466 30.0297 19.7515 30.1569 19.7165 30.276C19.6815 30.3951 19.6086 30.4997 19.5087 30.5741ZM19.7103 14.7706C19.6949 14.8107 19.6796 14.8489 19.6623 14.8871C19.645 14.9253 19.6316 14.9596 19.6181 14.9978C19.5875 15.0782 19.5391 15.1507 19.4765 15.2099C19.4139 15.2691 19.3387 15.3136 19.2565 15.34C19.1742 15.3664 19.0871 15.3741 19.0015 15.3624C18.9158 15.3508 18.834 15.3201 18.7619 15.2727H18.7369C18.6783 15.2434 18.6224 15.2089 18.5699 15.1696C18.4591 15.084 18.3835 14.9612 18.3573 14.8241C18.3312 14.687 18.3562 14.5451 18.4278 14.4251C18.473 14.3496 18.5339 14.2845 18.6064 14.2342C18.6682 14.1937 18.7323 14.1567 18.7983 14.1235L18.8713 14.0853C18.974 14.0224 19.094 13.9931 19.2143 14.0016C19.3347 14.0102 19.4493 14.0561 19.542 14.1329C19.6347 14.2096 19.7008 14.3134 19.731 14.4296C19.7612 14.5457 19.7539 14.6683 19.7103 14.7802V14.7706ZM26.589 28.9113C25.9344 30.7001 25.08 31.8322 24.2487 32.0135C24.2078 32.0225 24.1659 32.027 24.124 32.0269C24.0859 32.0268 24.048 32.023 24.0107 32.0155H23.8686C23.8273 32.0154 23.7861 32.0109 23.7458 32.0021C22.9164 31.8112 22.0621 30.6944 21.4055 28.9113C21.376 28.8342 21.3635 28.7516 21.369 28.6693C21.3746 28.587 21.3979 28.5069 21.4375 28.4343C21.477 28.3618 21.5319 28.2987 21.5983 28.2492C21.6646 28.1997 21.741 28.1651 21.8221 28.1476C23.2548 27.8373 24.7378 27.8373 26.1705 28.1476C26.2518 28.1648 26.3283 28.1993 26.3949 28.2487C26.4615 28.2981 26.5166 28.3612 26.5564 28.4338C26.5961 28.5063 26.6196 28.5865 26.6253 28.669C26.6309 28.7514 26.6185 28.834 26.589 28.9113ZM27.3704 25.8109C27.358 25.8891 27.3295 25.9639 27.2866 26.0306C27.2437 26.0973 27.1874 26.1544 27.1212 26.1984C27.055 26.2423 26.9804 26.2721 26.902 26.2859C26.8236 26.2998 26.7432 26.2973 26.6658 26.2786C24.9116 25.8604 23.0829 25.8604 21.3287 26.2786C21.2513 26.2973 21.1709 26.2998 21.0925 26.2859C21.0142 26.2721 20.9395 26.2423 20.8733 26.1984C20.8071 26.1544 20.7508 26.0973 20.7079 26.0306C20.665 25.9639 20.6365 25.8891 20.6241 25.8109C20.2564 23.5083 20.2564 21.1625 20.6241 18.8599C20.6365 18.7817 20.665 18.7069 20.7079 18.6402C20.7508 18.5735 20.8071 18.5164 20.8733 18.4725C20.9395 18.4285 21.0142 18.3987 21.0925 18.3849C21.1709 18.3711 21.2513 18.3735 21.3287 18.3922C23.0829 18.8104 24.9116 18.8104 26.6658 18.3922C26.7432 18.3735 26.8236 18.3711 26.902 18.3849C26.9804 18.3987 27.055 18.4285 27.1212 18.4725C27.1874 18.5164 27.2437 18.5735 27.2866 18.6402C27.3295 18.7069 27.358 18.7817 27.3704 18.8599C27.7378 21.1625 27.7378 23.5083 27.3704 25.8109ZM29.4093 30.4328L29.3881 30.4481C29.3263 30.4886 29.2622 30.5255 29.1962 30.5588L29.1232 30.597C29.0205 30.6599 28.9005 30.6892 28.7802 30.6806C28.6598 30.6721 28.5452 30.6262 28.4525 30.5494C28.3598 30.4726 28.2937 30.3689 28.2635 30.2527C28.2333 30.1366 28.2406 30.0139 28.2842 29.9021C28.2996 29.862 28.315 29.8238 28.3322 29.7856C28.3495 29.7475 28.3629 29.7131 28.3764 29.6749C28.4064 29.5944 28.4544 29.5216 28.5166 29.4619C28.5788 29.4023 28.6536 29.3573 28.7357 29.3303C28.8177 29.3034 28.9048 29.2951 28.9905 29.3062C29.0762 29.3173 29.1583 29.3474 29.2307 29.3943L29.2614 29.4095C29.3076 29.4326 29.3524 29.4581 29.3958 29.4859C29.4757 29.5372 29.5415 29.6073 29.5874 29.6901C29.6334 29.7728 29.6581 29.8656 29.6592 29.9601C29.6603 30.0546 29.6379 30.148 29.594 30.2318C29.55 30.3156 29.4859 30.3873 29.4073 30.4405L29.4093 30.4328ZM31.8033 28.182C31.7108 28.3026 31.5739 28.3818 31.4228 28.4022C31.2716 28.4226 31.1184 28.3826 30.997 28.2908C30.5154 27.9267 30.0064 27.5999 29.4745 27.3134C29.3681 27.2562 29.2824 27.1672 29.2296 27.0589C29.1769 26.9506 29.1598 26.8286 29.1808 26.7101C29.6949 23.8154 29.6949 20.8535 29.1808 17.9588C29.1598 17.8403 29.1769 17.7183 29.2296 17.61C29.2824 17.5017 29.3681 17.4127 29.4745 17.3555C30.0069 17.069 30.5159 16.7415 30.997 16.3762C31.0572 16.3305 31.1259 16.297 31.1991 16.2777C31.2724 16.2584 31.3487 16.2537 31.4238 16.2638C31.4989 16.2739 31.5712 16.2987 31.6367 16.3366C31.7021 16.3746 31.7594 16.425 31.8052 16.485C33.0885 18.1678 33.7829 20.2219 33.7826 22.3338C33.7822 24.4458 33.0871 26.4996 31.8033 28.182Z" fill="#1E81CE"/>
<path d="M32.6378 41.2364H15.3594V43.1454H32.6378V41.2364Z" fill="#1E81CE"/>
<path d="M35.7091 47.3455H12.2871V49.2546H35.7091V47.3455Z" fill="#1E81CE"/>
</svg>
