<svg width="57" height="58" viewBox="0 0 57 58" fill="none" xmlns="http://www.w3.org/2000/svg">
<g clip-path="url(#clip0)">
<path d="M50.804 49.1739H6.19531V56.7391H50.804V49.1739Z" fill="#CCE4FF"/>
<path d="M45.8475 41.6087H50.804V39.087C50.804 28.2815 43.394 19.2535 33.4562 16.9589C31.8577 16.5803 30.1974 16.3913 28.4997 16.3913C26.8019 16.3913 25.1417 16.5803 23.5431 16.9589C13.6053 19.2535 6.19531 28.2815 6.19531 39.087V41.6087H45.8475Z" fill="#CCE4FF"/>
<path d="M55.7609 55.4783H52.0435V49.1739C52.0435 48.4782 51.488 47.913 50.8043 47.913H47.087V42.8696H50.8043C51.488 42.8696 52.0435 42.3044 52.0435 41.6087V39.087C52.0435 28.1664 44.9542 18.825 34.6957 15.9967V10.087H40.8913C41.575 10.087 42.1304 9.52178 42.1304 8.82609V1.26087C42.1304 0.565175 41.575 0 40.8913 0H16.1087C15.425 0 14.8696 0.565175 14.8696 1.26087V8.82609C14.8696 9.52178 15.425 10.087 16.1087 10.087H22.3043V15.9967C12.0458 18.825 4.95652 28.1664 4.95652 39.087V41.6087C4.95652 42.3044 5.51195 42.8696 6.19565 42.8696H9.91304V47.913H6.19565C5.51195 47.913 4.95652 48.4782 4.95652 49.1739V55.4783H1.23913C0.555431 55.4783 0 56.0434 0 56.7391C0 57.4348 0.555431 58 1.23913 58H55.7609C56.4446 58 57 57.4348 57 56.7391C57 56.0434 56.4446 55.4783 55.7609 55.4783ZM17.3478 7.56522V2.52174H39.6522V7.56522H17.3478ZM32.2174 10.087V15.4358C29.7803 15.0412 27.2125 15.0424 24.7826 15.4358V10.087H32.2174ZM7.43478 40.3478V39.087C7.43478 29.0086 14.1719 20.4159 23.8248 18.1866C26.8222 17.4767 30.179 17.4767 33.1764 18.1866C33.1776 18.1866 33.18 18.1866 33.1824 18.1878C42.828 20.4159 49.5652 29.0086 49.5652 39.087V40.3478H7.43478ZM44.6087 42.8696V47.913H12.3913V42.8696H44.6087ZM49.5652 55.4783H7.43478V50.4348H49.5652V55.4783Z" fill="#1E81CE"/>
</g>
<defs>
<clipPath id="clip0">
<rect width="57" height="58" fill="white"/>
</clipPath>
</defs>
</svg>
