<svg width="85" height="73" viewBox="0 0 85 73" fill="none" xmlns="http://www.w3.org/2000/svg">
<path d="M24.6816 62.5143C24.6816 62.7769 24.6046 63.0337 24.4604 63.2521C24.3162 63.4705 24.1112 63.6407 23.8714 63.7413C23.6315 63.8418 23.3677 63.8681 23.1131 63.8168C22.8585 63.7656 22.6246 63.6391 22.4411 63.4534C22.2575 63.2676 22.1325 63.031 22.0819 62.7734C22.0312 62.5157 22.0572 62.2487 22.1565 62.006C22.2559 61.7633 22.4241 61.5559 22.6399 61.41C22.8558 61.264 23.1095 61.1862 23.3691 61.1862C23.7172 61.1862 24.051 61.3261 24.2972 61.5751C24.5433 61.8242 24.6816 62.162 24.6816 62.5143Z" fill="#9BC9FF"/>
<path d="M61.4316 62.5143C61.4316 62.7769 61.3546 63.0337 61.2104 63.2521C61.0662 63.4705 60.8612 63.6407 60.6214 63.7413C60.3815 63.8418 60.1177 63.8681 59.8631 63.8168C59.6085 63.7656 59.3746 63.6391 59.1911 63.4534C59.0075 63.2676 58.8825 63.031 58.8319 62.7734C58.7812 62.5157 58.8072 62.2487 58.9065 62.006C59.0059 61.7633 59.1741 61.5559 59.3899 61.41C59.6058 61.264 59.8595 61.1862 60.1191 61.1862C60.4672 61.1862 60.801 61.3261 61.0472 61.5751C61.2933 61.8242 61.4316 62.162 61.4316 62.5143Z" fill="#9BC9FF"/>
<path d="M61.4303 41.2647V35.9524C61.4303 33.1345 60.3241 30.4321 58.355 28.4395C56.386 26.447 53.7153 25.3276 50.9306 25.3276H32.5561C29.7714 25.3276 27.1007 26.447 25.1316 28.4395C23.1625 30.4321 22.0563 33.1345 22.0563 35.9524V41.2647C18.5754 41.2647 15.2371 42.664 12.7758 45.1546C10.3144 47.6453 8.93164 51.0234 8.93164 54.5457V57.2019C9.62782 57.2019 10.2955 57.4817 10.7878 57.9799C11.28 58.478 11.5566 59.1536 11.5566 59.8581C11.5566 60.5625 11.28 61.2381 10.7878 61.7363C10.2955 62.2344 9.62782 62.5143 8.93164 62.5143H16.8064C16.8064 60.7531 17.4978 59.0641 18.7285 57.8187C19.9592 56.5734 21.6283 55.8738 23.3688 55.8738C25.1092 55.8738 26.7784 56.5734 28.0091 57.8187C29.2397 59.0641 29.9311 60.7531 29.9311 62.5143H53.5555C53.5555 60.7531 54.2469 59.0641 55.4776 57.8187C56.7083 56.5734 58.3774 55.8738 60.1179 55.8738C61.8583 55.8738 63.5275 56.5734 64.7582 57.8187C65.9888 59.0641 66.6802 60.7531 66.6802 62.5143H71.9301C71.2339 62.5143 70.5662 62.2344 70.074 61.7363C69.5817 61.2381 69.3052 60.5625 69.3052 59.8581C69.3052 59.1536 69.5817 58.478 70.074 57.9799C70.5662 57.4817 71.2339 57.2019 71.9301 57.2019H74.555V54.5457C74.555 51.0234 73.1722 47.6453 70.7109 45.1546C68.2495 42.664 64.9112 41.2647 61.4303 41.2647ZM56.1805 41.2647H27.3062V37.2805C27.3062 35.5193 27.9976 33.8303 29.2283 32.5849C30.4589 31.3396 32.1281 30.64 33.8685 30.64H49.6181C51.3586 30.64 53.0277 31.3396 54.2584 32.5849C55.4891 33.8303 56.1805 35.5193 56.1805 37.2805V41.2647Z" fill="#9BC9FF"/>
<path d="M54.869 6.73428C54.869 7.25963 54.7151 7.77317 54.4266 8.20998C54.1382 8.64679 53.7282 8.98724 53.2486 9.18828C52.769 9.38932 52.2412 9.44192 51.732 9.33943C51.2228 9.23694 50.7551 8.98397 50.388 8.61249C50.0209 8.24102 49.7709 7.76773 49.6696 7.25248C49.5683 6.73723 49.6203 6.20316 49.819 5.7178C50.0176 5.23245 50.3541 4.81761 50.7857 4.52574C51.2174 4.23388 51.7249 4.07809 52.2441 4.07809C52.9403 4.07809 53.6079 4.35794 54.1002 4.85607C54.5925 5.35421 54.869 6.02982 54.869 6.73428Z" fill="#9BC9FF"/>
<path d="M79.8046 27.9838C79.8046 28.5091 79.6506 29.0227 79.3622 29.4595C79.0737 29.8963 78.6638 30.2368 78.1841 30.4378C77.7045 30.6388 77.1767 30.6914 76.6675 30.589C76.1583 30.4865 75.6906 30.2335 75.3235 29.862C74.9564 29.4905 74.7064 29.0172 74.6051 28.502C74.5038 27.9867 74.5558 27.4527 74.7545 26.9673C74.9532 26.482 75.2896 26.0671 75.7213 25.7753C76.153 25.4834 76.6605 25.3276 77.1796 25.3276C77.8758 25.3276 78.5435 25.6075 79.0357 26.1056C79.528 26.6037 79.8046 27.2793 79.8046 27.9838Z" fill="#9BC9FF"/>
<path d="M78.0001 56.0913H76.3595V54.4311C76.3692 50.8665 75.0568 47.4279 72.6819 44.7951C70.307 42.1623 67.0424 40.5269 63.5335 40.2122L63.2349 40.184V35.8378C63.2266 32.7583 62.0141 29.8074 59.8622 27.6299C57.7103 25.4523 54.794 24.2253 51.7508 24.217H33.3762C30.333 24.2253 27.4167 25.4523 25.2648 27.6299C23.1129 29.8074 21.9004 32.7583 21.8921 35.8378V40.184L21.5935 40.2122C18.0846 40.5269 14.8199 42.1623 12.445 44.7951C10.0701 47.4279 8.7578 50.8665 8.76745 54.4311V56.0913H7.12686C6.16962 56.0913 5.25159 56.476 4.57471 57.161C3.89784 57.8459 3.51758 58.7749 3.51758 59.7435C3.51758 60.7122 3.89784 61.6411 4.57471 62.326C5.25159 63.011 6.16962 63.3958 7.12686 63.3958H16.7095L16.7555 63.673C17.0518 65.4511 17.9611 67.0654 19.3219 68.2296C20.6826 69.3938 22.407 70.0325 24.1889 70.0325C25.9709 70.0325 27.6952 69.3938 29.056 68.2296C30.4168 67.0654 31.3261 65.4511 31.6224 63.673L31.6684 63.3958H53.4586L53.5046 63.673C53.8009 65.4511 54.7102 67.0654 56.071 68.2296C57.4317 69.3938 59.1561 70.0325 60.938 70.0325C62.72 70.0325 64.4443 69.3938 65.8051 68.2296C67.1659 67.0654 68.0752 65.4511 68.3715 63.673L68.4175 63.3958H78.0001C78.9574 63.3958 79.8754 63.011 80.5523 62.326C81.2291 61.6411 81.6094 60.7122 81.6094 59.7435C81.6094 58.7749 81.2291 57.8459 80.5523 57.161C79.8754 56.476 78.9574 56.0913 78.0001 56.0913ZM10.8854 60.9322C10.7383 61.0816 10.5634 61.2003 10.3708 61.2812C10.1783 61.3621 9.9718 61.4037 9.76328 61.4036H7.12686C6.69175 61.4036 6.27447 61.2287 5.9668 60.9174C5.65913 60.6061 5.48628 60.1838 5.48628 59.7435C5.48628 59.5209 5.53124 59.3006 5.61842 59.0962C5.70559 58.8918 5.83314 58.7076 5.99322 58.5549C6.14184 58.4041 6.31861 58.2848 6.51323 58.2039C6.70785 58.1229 6.91645 58.082 7.12686 58.0834H9.7518C9.96725 58.0834 10.1806 58.1263 10.3796 58.2098C10.5787 58.2932 10.7595 58.4155 10.9119 58.5696C11.0642 58.7238 11.1851 58.9068 11.2675 59.1082C11.35 59.3096 11.3924 59.5255 11.3924 59.7435C11.3924 59.9661 11.3474 60.1864 11.2602 60.3908C11.1731 60.5952 11.0455 60.7794 10.8854 60.9322ZM24.1889 68.0441C23.0857 68.0441 22.0073 67.7131 21.09 67.0928C20.1727 66.4726 19.4577 65.5911 19.0356 64.5597C18.6134 63.5283 18.5029 62.3934 18.7181 61.2985C18.9334 60.2036 19.4646 59.1979 20.2447 58.4085C21.0248 57.6191 22.0187 57.0815 23.1007 56.8638C24.1828 56.646 25.3043 56.7577 26.3235 57.185C27.3428 57.6122 28.214 58.3356 28.8269 59.2638C29.4398 60.1921 29.7669 61.2833 29.7669 62.3997C29.7669 63.8967 29.1793 65.3324 28.1332 66.3909C27.0871 67.4494 25.6683 68.0441 24.1889 68.0441ZM60.938 68.0441C59.8348 68.0441 58.7564 67.7131 57.8391 67.0928C56.9218 66.4726 56.2068 65.5911 55.7847 64.5597C55.3625 63.5283 55.252 62.3934 55.4672 61.2985C55.6825 60.2036 56.2137 59.1979 56.9938 58.4085C57.7739 57.6191 58.7678 57.0815 59.8498 56.8638C60.9319 56.646 62.0534 56.7577 63.0726 57.185C64.0919 57.6122 64.9631 58.3356 65.576 59.2638C66.1889 60.1921 66.516 61.2833 66.516 62.3997C66.516 63.8967 65.9284 65.3324 64.8823 66.3909C63.8362 67.4494 62.4174 68.0441 60.938 68.0441ZM69.2066 60.4208C69.2066 60.464 69.2263 60.5038 69.2378 60.5453C69.2492 60.5868 69.2558 60.6101 69.264 60.6416C69.2722 60.6732 69.2821 60.7163 69.2903 60.7529C69.3045 60.8235 69.3225 60.8934 69.3444 60.962L69.497 61.4036H68.3748V61.1115C68.3681 61.0919 68.3627 61.0719 68.3584 61.0517C68.2894 60.665 68.1912 60.2843 68.0647 59.9128C68.0549 59.8846 68.0451 59.8564 68.0336 59.8282C68.0221 59.8 68.004 59.7485 67.9893 59.7053C67.8559 59.3469 67.6963 58.9989 67.5119 58.6644L67.4758 58.603L67.4249 58.52C67.2248 58.1745 66.9982 57.8453 66.7474 57.5356L66.7342 57.5223C66.4777 57.2132 66.1973 56.9251 65.8959 56.6607L65.845 56.6125L65.8007 56.5727C65.5054 56.3227 65.1916 56.0957 64.8623 55.8937C64.7983 55.8539 64.7475 55.8223 64.6983 55.7908C64.3694 55.5988 64.0266 55.4323 63.6729 55.2927L63.4826 55.2214C63.1144 55.087 62.7365 54.9815 62.3522 54.9059L62.285 54.8943L62.198 54.881C61.3633 54.7267 60.5079 54.7267 59.6732 54.881L59.5878 54.8943L59.5206 54.9059C59.1357 54.982 58.7573 55.088 58.3886 55.223L58.195 55.2961C57.8429 55.4359 57.5018 55.6023 57.1745 55.7941L57.0203 55.8887C56.6881 56.0921 56.3717 56.3208 56.0737 56.5727L56.0278 56.6159L55.9802 56.6607C55.68 56.9235 55.4008 57.21 55.1451 57.5173L55.1156 57.5505C54.8684 57.8579 54.6452 58.1843 54.4479 58.5266L54.4085 58.5914C54.3938 58.6163 54.379 58.6412 54.3642 58.6661C54.1767 59.0032 54.0154 59.3545 53.8819 59.7169L53.8556 59.785C53.8409 59.8249 53.8245 59.8664 53.8113 59.9095C53.6847 60.2792 53.5865 60.6583 53.5177 61.0434C53.5121 61.0709 53.505 61.098 53.4964 61.1247L53.4504 61.4003H53.1715H40.9229V46.4626C40.9229 46.1984 40.8192 45.945 40.6346 45.7582C40.45 45.5714 40.1996 45.4665 39.9386 45.4665C39.6775 45.4665 39.4271 45.5714 39.2425 45.7582C39.0579 45.945 38.9542 46.1984 38.9542 46.4626V61.4036H31.6274V61.1115C31.6207 61.0919 31.6152 61.0719 31.611 61.0517C31.542 60.665 31.4438 60.2843 31.3173 59.9128C31.3074 59.8846 31.2976 59.8564 31.2861 59.8282C31.2746 59.8 31.2566 59.7485 31.2418 59.7053C31.1084 59.3469 30.9488 58.9989 30.7644 58.6644L30.7283 58.603L30.6775 58.52C30.4773 58.1745 30.2508 57.8453 29.9999 57.5356L29.9868 57.5223C29.7302 57.2132 29.4499 56.9251 29.1484 56.6607L29.0976 56.6125L29.0533 56.5727C28.7579 56.3227 28.4442 56.0957 28.1149 55.8937C28.0509 55.8539 28 55.8223 27.9508 55.7908C27.622 55.5988 27.2792 55.4323 26.9254 55.2927L26.7351 55.2214C26.3669 55.087 25.989 54.9815 25.6048 54.9059L25.5375 54.8943L25.4506 54.881C24.6158 54.7267 23.7604 54.7267 22.9257 54.881L22.8404 54.8943L22.7731 54.9059C22.3883 54.982 22.0098 55.088 21.6411 55.223L21.4475 55.2961C21.0955 55.4359 20.7544 55.6023 20.4271 55.7941L20.2729 55.8887C19.9407 56.0921 19.6242 56.3208 19.3263 56.5727L19.2803 56.6159L19.2327 56.6607C18.9326 56.9235 18.6533 57.21 18.3977 57.5173L18.3682 57.5505C18.121 57.8579 17.8977 58.1843 17.7004 58.5266L17.6611 58.5914C17.6463 58.6163 17.6315 58.6412 17.6168 58.6661C17.4294 59.0021 17.2681 59.3523 17.1344 59.7136L17.1082 59.7817C17.0934 59.8215 17.077 59.863 17.0639 59.9062C16.9372 60.2759 16.839 60.655 16.7702 61.0401C16.7646 61.0676 16.7575 61.0947 16.7489 61.1214L16.6997 61.4036H16.4208H13.0198L13.1527 60.972C13.1855 60.8674 13.2134 60.7595 13.2348 60.6499C13.2462 60.6035 13.2544 60.5736 13.2627 60.5437C13.2746 60.5044 13.2845 60.4645 13.2922 60.4242C13.3359 60.1999 13.359 59.9721 13.3611 59.7435C13.3593 59.5205 13.3367 59.2982 13.2938 59.0795C13.284 59.0247 13.2725 58.9815 13.261 58.9367L13.2462 58.8802C13.2115 58.7301 13.1666 58.5826 13.1117 58.4387C13.0855 58.3689 13.0592 58.3009 13.028 58.2328C12.9631 58.0923 12.8897 57.9559 12.8082 57.8244L12.7639 57.7481C12.7491 57.7232 12.736 57.6966 12.7196 57.6733C12.5991 57.4962 12.4641 57.3296 12.316 57.1753L12.298 57.1604C12.2751 57.1416 12.2532 57.1216 12.2324 57.1006C12.1064 56.9803 11.9721 56.8694 11.8304 56.7686C11.791 56.7404 11.7533 56.7171 11.7156 56.6922L11.6582 56.6557C11.5321 56.5755 11.4011 56.5034 11.2661 56.4399L11.2136 56.415C11.1693 56.3934 11.125 56.3718 11.0758 56.3519C11.0528 56.3519 11.0233 56.3303 10.9937 56.3154L10.9593 56.2988L10.7362 56.2257V54.4311C10.7448 51.1757 12.0267 48.0561 14.3015 45.7541C16.5764 43.4521 19.6593 42.155 22.8765 42.1463C23.1375 42.1463 23.3879 42.0413 23.5725 41.8545C23.7571 41.6677 23.8608 41.4144 23.8608 41.1502V35.8378C23.8682 33.2864 24.8731 30.8417 26.656 29.0375C28.4388 27.2334 30.8548 26.2166 33.3762 26.2091H51.7508C54.2721 26.2166 56.6881 27.2334 58.471 29.0375C60.2539 30.8417 61.2588 33.2864 61.2662 35.8378V41.1502C61.2662 41.4144 61.3699 41.6677 61.5545 41.8545C61.7391 42.0413 61.9894 42.1463 62.2505 42.1463C65.4677 42.155 68.5506 43.4521 70.8255 45.7541C73.1003 48.0561 74.3822 51.1757 74.3908 54.4311V56.0913H72.7503C71.793 56.0913 70.875 56.476 70.1981 57.161C69.5212 57.8459 69.141 58.7749 69.141 59.7435C69.1429 59.9708 69.1649 60.1975 69.2066 60.4208ZM78.0001 61.4036H72.7503C72.5308 61.4032 72.3137 61.3575 72.1123 61.2693C71.9109 61.1811 71.7294 61.0522 71.5789 60.8907C71.4292 60.7407 71.3106 60.5619 71.23 60.3649C71.1494 60.168 71.1085 59.9567 71.1097 59.7435C71.1097 59.3032 71.2825 58.881 71.5902 58.5696C71.8979 58.2583 72.3151 58.0834 72.7503 58.0834H78.0001C78.2196 58.0838 78.4366 58.1296 78.638 58.2178C78.8394 58.306 79.021 58.4348 79.1715 58.5964C79.3212 58.7464 79.4398 58.9251 79.5204 59.1221C79.601 59.3191 79.6419 59.5303 79.6407 59.7435C79.6407 60.1838 79.4679 60.6061 79.1602 60.9174C78.8525 61.2287 78.4352 61.4036 78.0001 61.4036Z" fill="#1E81CE"/>
<path d="M24.1894 60.0755C23.7351 60.0755 23.2911 60.2118 22.9134 60.4672C22.5356 60.7226 22.2413 61.0856 22.0674 61.5103C21.8936 61.935 21.8481 62.4023 21.9367 62.8531C22.0253 63.304 22.2441 63.7181 22.5653 64.0431C22.8865 64.3682 23.2958 64.5895 23.7413 64.6792C24.1869 64.7689 24.6487 64.7229 25.0684 64.547C25.488 64.371 25.8468 64.0731 26.0991 63.6909C26.3515 63.3087 26.4862 62.8594 26.4862 62.3997C26.4862 61.7833 26.2442 61.1921 25.8135 60.7563C25.3828 60.3204 24.7986 60.0755 24.1894 60.0755Z" fill="#1E81CE"/>
<path d="M60.9374 60.0755C60.4832 60.0755 60.0391 60.2118 59.6614 60.4672C59.2837 60.7226 58.9893 61.0856 58.8155 61.5103C58.6416 61.935 58.5961 62.4023 58.6848 62.8531C58.7734 63.304 58.9921 63.7181 59.3133 64.0431C59.6346 64.3682 60.0438 64.5895 60.4894 64.6792C60.9349 64.7689 61.3967 64.7229 61.8164 64.547C62.2361 64.371 62.5948 64.0731 62.8472 63.6909C63.0996 63.3087 63.2343 62.8594 63.2343 62.3997C63.2343 61.7833 62.9923 61.1921 62.5615 60.7563C62.1308 60.3204 61.5466 60.0755 60.9374 60.0755Z" fill="#1E81CE"/>
<path d="M57.9836 37.1659C57.9784 35.1422 57.1817 33.2029 55.7675 31.7719C54.3533 30.3409 52.4368 29.5346 50.4369 29.5294H34.6873C32.6874 29.5346 30.7709 30.3409 29.3567 31.7719C27.9426 33.2029 27.1458 35.1422 27.1406 37.1659V41.1502C27.1406 41.4144 27.2443 41.6677 27.4289 41.8545C27.6135 42.0413 27.8639 42.1463 28.125 42.1463H56.9993C57.2603 42.1463 57.5107 42.0413 57.6953 41.8545C57.8799 41.6677 57.9836 41.4144 57.9836 41.1502V37.1659ZM38.9528 40.1541H29.1093V37.1659C29.1093 35.6689 29.697 34.2333 30.7431 33.1747C31.7892 32.1162 33.2079 31.5215 34.6873 31.5215H38.9528V40.1541ZM56.0149 40.1541H40.9215V31.5215H50.4369C51.9163 31.5215 53.3351 32.1162 54.3812 33.1747C55.4272 34.2333 56.0149 35.6689 56.0149 37.1659V40.1541Z" fill="#1E81CE"/>
<path d="M71.1093 50.4469C71.1093 50.1827 71.0056 49.9293 70.821 49.7425C70.6364 49.5557 70.386 49.4508 70.125 49.4508C69.8639 49.4508 69.6135 49.5557 69.4289 49.7425C69.2443 49.9293 69.1406 50.1827 69.1406 50.4469V53.1031C69.1406 53.3672 69.2443 53.6206 69.4289 53.8074C69.6135 53.9942 69.8639 54.0991 70.125 54.0991C70.386 54.0991 70.6364 53.9942 70.821 53.8074C71.0056 53.6206 71.1093 53.3672 71.1093 53.1031V50.4469Z" fill="#1E81CE"/>
<path d="M53.0644 2.96748C52.3505 2.96748 51.6527 3.18168 51.0592 3.583C50.4656 3.98432 50.003 4.55472 49.7298 5.22208C49.4566 5.88945 49.3852 6.62379 49.5244 7.33226C49.6637 8.04073 50.0074 8.6915 50.5122 9.20228C51.017 9.71306 51.6601 10.0609 52.3602 10.2018C53.0604 10.3427 53.7861 10.2704 54.4456 9.99399C55.1051 9.71756 55.6688 9.24944 56.0654 8.64883C56.462 8.04822 56.6736 7.34209 56.6736 6.61974C56.6736 5.6511 56.2934 4.72214 55.6165 4.03721C54.9396 3.35227 54.0216 2.96748 53.0644 2.96748V2.96748ZM53.0644 8.27986C52.7399 8.27986 52.4227 8.1825 52.1529 8.00008C51.8831 7.81766 51.6728 7.55839 51.5487 7.25504C51.4245 6.9517 51.392 6.6179 51.4553 6.29587C51.5186 5.97384 51.6749 5.67803 51.9043 5.44586C52.1337 5.21369 52.4261 5.05558 52.7443 4.99152C53.0625 4.92747 53.3924 4.96034 53.6922 5.08599C53.992 5.21164 54.2482 5.42443 54.4285 5.69743C54.6087 5.97044 54.7049 6.2914 54.7049 6.61974C54.7049 7.06003 54.5321 7.48229 54.2244 7.79362C53.9168 8.10496 53.4995 8.27986 53.0644 8.27986Z" fill="#1E81CE"/>
<path d="M77.9999 24.217C77.2861 24.217 76.5882 24.4312 75.9947 24.8325C75.4012 25.2338 74.9385 25.8042 74.6654 26.4716C74.3922 27.139 74.3207 27.8733 74.46 28.5818C74.5992 29.2902 74.943 29.941 75.4478 30.4518C75.9525 30.9626 76.5956 31.3104 77.2958 31.4513C77.9959 31.5923 78.7216 31.5199 79.3811 31.2435C80.0406 30.9671 80.6043 30.4989 81.0009 29.8983C81.3975 29.2977 81.6092 28.5916 81.6092 27.8693C81.6092 26.9006 81.2289 25.9716 80.5521 25.2867C79.8752 24.6018 78.9572 24.217 77.9999 24.217ZM77.9999 29.5294C77.6754 29.5294 77.3582 29.432 77.0885 29.2496C76.8187 29.0672 76.6084 28.8079 76.4842 28.5045C76.36 28.2012 76.3275 27.8674 76.3908 27.5454C76.4541 27.2233 76.6104 26.9275 76.8398 26.6954C77.0693 26.4632 77.3616 26.3051 77.6798 26.241C77.9981 26.177 78.328 26.2099 78.6277 26.3355C78.9275 26.4612 79.1837 26.6739 79.364 26.9469C79.5443 27.2199 79.6405 27.5409 79.6405 27.8693C79.6405 28.3095 79.4676 28.7318 79.16 29.0431C78.8523 29.3545 78.435 29.5294 77.9999 29.5294Z" fill="#1E81CE"/>
<path d="M36.9863 9.27593C36.9863 9.01176 36.8826 8.7584 36.698 8.5716C36.5134 8.3848 36.263 8.27986 36.0019 8.27986C35.7409 8.27986 35.4905 8.3848 35.3059 8.5716C35.1213 8.7584 35.0176 9.01176 35.0176 9.27593V10.604C35.0176 10.8682 35.1213 11.1216 35.3059 11.3084C35.4905 11.4952 35.7409 11.6001 36.0019 11.6001C36.263 11.6001 36.5134 11.4952 36.698 11.3084C36.8826 11.1216 36.9863 10.8682 36.9863 10.604V9.27593Z" fill="#1E81CE"/>
<path d="M33.3769 12.2641H32.0644C31.8034 12.2641 31.553 12.3691 31.3684 12.5559C31.1838 12.7427 31.0801 12.996 31.0801 13.2602C31.0801 13.5244 31.1838 13.7777 31.3684 13.9645C31.553 14.1513 31.8034 14.2563 32.0644 14.2563H33.3769C33.638 14.2563 33.8883 14.1513 34.0729 13.9645C34.2575 13.7777 34.3612 13.5244 34.3612 13.2602C34.3612 12.996 34.2575 12.7427 34.0729 12.5559C33.8883 12.3691 33.638 12.2641 33.3769 12.2641Z" fill="#1E81CE"/>
<path d="M36.9863 15.9164C36.9863 15.6522 36.8826 15.3989 36.698 15.2121C36.5134 15.0253 36.263 14.9203 36.0019 14.9203C35.7409 14.9203 35.4905 15.0253 35.3059 15.2121C35.1213 15.3989 35.0176 15.6522 35.0176 15.9164V17.2445C35.0176 17.5087 35.1213 17.762 35.3059 17.9488C35.4905 18.1356 35.7409 18.2406 36.0019 18.2406C36.263 18.2406 36.5134 18.1356 36.698 17.9488C36.8826 17.762 36.9863 17.5087 36.9863 17.2445V15.9164Z" fill="#1E81CE"/>
<path d="M39.9394 12.2641H38.6269C38.3659 12.2641 38.1155 12.3691 37.9309 12.5559C37.7463 12.7427 37.6426 12.996 37.6426 13.2602C37.6426 13.5244 37.7463 13.7777 37.9309 13.9645C38.1155 14.1513 38.3659 14.2563 38.6269 14.2563H39.9394C40.2005 14.2563 40.4508 14.1513 40.6354 13.9645C40.82 13.7777 40.9237 13.5244 40.9237 13.2602C40.9237 12.996 40.82 12.7427 40.6354 12.5559C40.4508 12.3691 40.2005 12.2641 39.9394 12.2641Z" fill="#1E81CE"/>
<path d="M67.1718 14.5883C67.1718 14.3241 67.0681 14.0708 66.8835 13.884C66.6989 13.6972 66.4485 13.5922 66.1875 13.5922C65.9264 13.5922 65.676 13.6972 65.4914 13.884C65.3068 14.0708 65.2031 14.3241 65.2031 14.5883V15.9164C65.2031 16.1806 65.3068 16.4339 65.4914 16.6207C65.676 16.8075 65.9264 16.9125 66.1875 16.9125C66.4485 16.9125 66.6989 16.8075 66.8835 16.6207C67.0681 16.4339 67.1718 16.1806 67.1718 15.9164V14.5883Z" fill="#1E81CE"/>
<path d="M63.5624 17.5765H62.25C61.9889 17.5765 61.7385 17.6815 61.5539 17.8683C61.3693 18.0551 61.2656 18.3084 61.2656 18.5726C61.2656 18.8368 61.3693 19.0901 61.5539 19.2769C61.7385 19.4637 61.9889 19.5687 62.25 19.5687H63.5624C63.8235 19.5687 64.0739 19.4637 64.2585 19.2769C64.4431 19.0901 64.5468 18.8368 64.5468 18.5726C64.5468 18.3084 64.4431 18.0551 64.2585 17.8683C64.0739 17.6815 63.8235 17.5765 63.5624 17.5765Z" fill="#1E81CE"/>
<path d="M67.1718 21.2288C67.1718 20.9646 67.0681 20.7112 66.8835 20.5244C66.6989 20.3376 66.4485 20.2327 66.1875 20.2327C65.9264 20.2327 65.676 20.3376 65.4914 20.5244C65.3068 20.7112 65.2031 20.9646 65.2031 21.2288V22.5569C65.2031 22.821 65.3068 23.0744 65.4914 23.2612C65.676 23.448 65.9264 23.5529 66.1875 23.5529C66.4485 23.5529 66.6989 23.448 66.8835 23.2612C67.0681 23.0744 67.1718 22.821 67.1718 22.5569V21.2288Z" fill="#1E81CE"/>
<path d="M70.1249 17.5765H68.8125C68.5514 17.5765 68.301 17.6815 68.1164 17.8683C67.9318 18.0551 67.8281 18.3084 67.8281 18.5726C67.8281 18.8368 67.9318 19.0901 68.1164 19.2769C68.301 19.4637 68.5514 19.5687 68.8125 19.5687H70.1249C70.386 19.5687 70.6364 19.4637 70.821 19.2769C71.0056 19.0901 71.1093 18.8368 71.1093 18.5726C71.1093 18.3084 71.0056 18.0551 70.821 17.8683C70.6364 17.6815 70.386 17.5765 70.1249 17.5765Z" fill="#1E81CE"/>
<path d="M13.3613 15.9164C13.3613 15.6522 13.2576 15.3989 13.073 15.2121C12.8884 15.0253 12.638 14.9203 12.3769 14.9203C12.1159 14.9203 11.8655 15.0253 11.6809 15.2121C11.4963 15.3989 11.3926 15.6522 11.3926 15.9164V17.2445C11.3926 17.5087 11.4963 17.762 11.6809 17.9488C11.8655 18.1356 12.1159 18.2406 12.3769 18.2406C12.638 18.2406 12.8884 18.1356 13.073 17.9488C13.2576 17.762 13.3613 17.5087 13.3613 17.2445V15.9164Z" fill="#1E81CE"/>
<path d="M7.50969 17.711L8.4317 18.644C8.61712 18.828 8.86689 18.9304 9.1266 18.9289C9.38631 18.9274 9.6349 18.8221 9.81822 18.6359C10.0015 18.4498 10.1047 18.1978 10.1053 17.935C10.1059 17.6722 10.0038 17.4199 9.82128 17.2329L8.89763 16.2982C8.71202 16.1143 8.46209 16.0121 8.20232 16.0139C7.94256 16.0157 7.69402 16.1213 7.51087 16.3077C7.32773 16.4941 7.22483 16.7462 7.22461 17.0091C7.22439 17.272 7.32686 17.5243 7.50969 17.711Z" fill="#1E81CE"/>
<path d="M8.4394 20.2327H7.12693C6.86586 20.2327 6.61549 20.3376 6.43089 20.5244C6.24629 20.7112 6.14258 20.9646 6.14258 21.2288C6.14258 21.4929 6.24629 21.7463 6.43089 21.9331C6.61549 22.1199 6.86586 22.2248 7.12693 22.2248H8.4394C8.70046 22.2248 8.95084 22.1199 9.13544 21.9331C9.32004 21.7463 9.42375 21.4929 9.42375 21.2288C9.42375 20.9646 9.32004 20.7112 9.13544 20.5244C8.95084 20.3376 8.70046 20.2327 8.4394 20.2327Z" fill="#1E81CE"/>
<path d="M7.69621 25.2529C7.74044 25.424 7.82886 25.58 7.9524 25.7051C8.07593 25.8301 8.23013 25.9196 8.39916 25.9644C8.56819 26.0092 8.74595 26.0076 8.91419 25.9599C9.08243 25.9122 9.23509 25.82 9.35649 25.6928L10.2883 24.7499C10.4702 24.5623 10.5714 24.3095 10.5699 24.0467C10.5684 23.7839 10.4643 23.5324 10.2804 23.3469C10.0964 23.1614 9.84745 23.057 9.58774 23.0564C9.32803 23.0558 9.07862 23.1591 8.89384 23.3438L7.96855 24.2801C7.84149 24.4029 7.74922 24.5579 7.70133 24.7289C7.65344 24.9 7.65167 25.0809 7.69621 25.2529Z" fill="#1E81CE"/>
<path d="M13.3613 25.2131C13.3613 24.9489 13.2576 24.6955 13.073 24.5087C12.8884 24.3219 12.638 24.217 12.3769 24.217C12.1159 24.217 11.8655 24.3219 11.6809 24.5087C11.4963 24.6955 11.3926 24.9489 11.3926 25.2131V26.5412C11.3926 26.8053 11.4963 27.0587 11.6809 27.2455C11.8655 27.4323 12.1159 27.5372 12.3769 27.5372C12.638 27.5372 12.8884 27.4323 13.073 27.2455C13.2576 27.0587 13.3613 26.8053 13.3613 26.5412V25.2131Z" fill="#1E81CE"/>
<path d="M14.4687 24.7549L15.3907 25.6879C15.5761 25.8719 15.8259 25.9743 16.0856 25.9728C16.3453 25.9713 16.5939 25.866 16.7772 25.6798C16.9605 25.4936 17.0637 25.2417 17.0643 24.9789C17.0649 24.7161 16.9628 24.4637 16.7803 24.2768L15.8566 23.3421C15.671 23.1582 15.4211 23.056 15.1613 23.0578C14.9015 23.0595 14.653 23.1652 14.4699 23.3516C14.2867 23.538 14.1838 23.7901 14.1836 24.053C14.1834 24.3158 14.2858 24.5681 14.4687 24.7549Z" fill="#1E81CE"/>
<path d="M17.6269 20.2327H16.3144C16.0534 20.2327 15.803 20.3376 15.6184 20.5244C15.4338 20.7112 15.3301 20.9646 15.3301 21.2288C15.3301 21.4929 15.4338 21.7463 15.6184 21.9331C15.803 22.1199 16.0534 22.2248 16.3144 22.2248H17.6269C17.888 22.2248 18.1383 22.1199 18.3229 21.9331C18.5075 21.7463 18.6112 21.4929 18.6112 21.2288C18.6112 20.9646 18.5075 20.7112 18.3229 20.5244C18.1383 20.3376 17.888 20.2327 17.6269 20.2327Z" fill="#1E81CE"/>
<path d="M16.769 16.7846C16.5865 16.6001 16.3396 16.4954 16.0815 16.4933C15.8234 16.4911 15.5749 16.5916 15.3893 16.773L14.4656 17.7077C14.3689 17.7989 14.2914 17.9088 14.2376 18.031C14.1838 18.1532 14.1548 18.2851 14.1525 18.4188C14.1502 18.5526 14.1745 18.6854 14.224 18.8095C14.2735 18.9335 14.3472 19.0462 14.4407 19.1407C14.5341 19.2353 14.6455 19.3099 14.768 19.36C14.8906 19.4101 15.0219 19.4347 15.1541 19.4323C15.2862 19.43 15.4166 19.4007 15.5373 19.3463C15.6581 19.2918 15.7667 19.2133 15.8569 19.1155L16.7854 18.1758C16.9626 17.9876 17.0601 17.7368 17.057 17.4769C17.054 17.2169 16.9506 16.9685 16.769 16.7846Z" fill="#1E81CE"/>
</svg>
