<svg width="63" height="63" viewBox="0 0 63 63" fill="none" xmlns="http://www.w3.org/2000/svg">
<path d="M61.292 10.9112L60.242 9.09265C57.922 5.07516 52.7854 3.69909 48.7674 6.01852L37.8562 12.3185L19.4525 3.54477L11.2688 8.26977L26.9435 18.6185L17.8503 23.8685L8.82019 14.5318L2.45508 18.2068L8.75713 29.1185L12.9571 36.3926C14.1168 38.3988 16.6824 39.0869 18.6901 37.9302L60.5194 13.7802C61.5253 13.2014 61.8713 11.9171 61.292 10.9112Z" fill="#BDDBFF"/>
<path d="M12.0473 36.9177C12.7405 38.1261 13.8884 39.0074 15.2347 39.3642C15.6803 39.4842 16.1391 39.5452 16.6001 39.5457C17.5188 39.5447 18.4217 39.3017 19.2163 38.8403L61.0456 14.6903C62.5514 13.8192 63.0682 11.8935 62.2002 10.3852L61.1502 8.56663C58.537 4.05184 52.762 2.50503 48.2416 5.10901L37.8077 11.1332L19.9044 2.59629C19.5921 2.4471 19.2266 2.46146 18.9267 2.63423L10.743 7.35923C10.4282 7.54124 10.2303 7.87347 10.2196 8.23697C10.2088 8.60047 10.3872 8.94397 10.6907 9.14444L24.9452 18.5565L18.0341 22.5463L9.57664 13.7987C9.24083 13.4521 8.71173 13.3788 8.29439 13.6213L1.92928 17.2963C1.42735 17.5865 1.25508 18.2284 1.54527 18.7308L12.0473 36.9177ZM13.265 8.32823L19.4988 4.72911L35.6005 12.4077L26.9847 17.3845L13.265 8.32823ZM8.6379 15.8505L17.0943 24.6032C17.4296 24.9498 17.9572 25.0236 18.3745 24.7832L49.2916 6.93318C52.8076 4.90906 57.2988 6.11236 59.3317 9.6233L60.3817 11.4418C60.6719 11.9438 60.4996 12.5862 59.9977 12.8758L18.1689 37.0258C17.445 37.4442 16.5842 37.5575 15.7767 37.3406C14.9692 37.1243 14.2811 36.5952 13.8638 35.8707L3.8888 18.5944L8.6379 15.8505Z" fill="#1E81CE"/>
<path d="M49.4336 9.27107L53.0712 7.17159L54.1207 8.99011L50.4831 11.0896L49.4336 9.27107Z" fill="#1E81CE"/>
<path d="M45.7949 11.3716L47.614 10.3216L48.6635 12.1401L46.8449 13.1901L45.7949 11.3716Z" fill="#1E81CE"/>
<path d="M42.1562 13.4711L43.9748 12.4216L45.0248 14.2401L43.2057 15.2901L42.1562 13.4711Z" fill="#1E81CE"/>
<path d="M38.5215 15.5706L40.34 14.5211L41.39 16.3396L39.571 17.3896L38.5215 15.5706Z" fill="#1E81CE"/>
<path d="M34.8848 17.6706L36.7028 16.6211L37.7523 18.4401L35.9348 19.4891L34.8848 17.6706Z" fill="#1E81CE"/>
<path d="M31.2461 19.7706L33.0641 18.7211L34.1141 20.5396L32.2961 21.5891L31.2461 19.7706Z" fill="#1E81CE"/>
<path d="M27.6094 21.8706L29.4279 20.8211L30.4779 22.6396L28.6589 23.6896L27.6094 21.8706Z" fill="#1E81CE"/>
<path d="M23.9727 23.9706L25.7917 22.9211L26.8412 24.7396L25.0227 25.7896L23.9727 23.9706Z" fill="#1E81CE"/>
<path d="M0 58.5186H63V60.6186H0V58.5186Z" fill="#1E81CE"/>
<path d="M55.6508 30.1685H53.5508C53.5369 42.3404 43.6727 52.2047 31.5008 52.2185H6.30078V54.3185H31.5008C44.8324 54.3037 55.6364 43.5001 55.6508 30.1685Z" fill="#1E81CE"/>
<path d="M49.3496 30.1685H47.2496C47.2399 38.8628 40.1939 45.9088 31.4996 45.9185H2.09961V48.0185H31.4996C41.3531 48.0072 49.3389 40.022 49.3496 30.1685Z" fill="#1E81CE"/>
</svg>
