<svg width="67" height="67" viewBox="0 0 67 67" fill="none" xmlns="http://www.w3.org/2000/svg">
<g clip-path="url(#clip0)">
<path d="M51.3131 24.2297C50.1158 24.8191 48.881 25.3299 47.6172 25.759C49.0243 30.0579 49.7255 34.5569 49.6939 39.0798H60.8595C60.8666 35.5246 60.1568 32.0043 58.772 28.7292C57.421 30.8953 56.3933 32.3804 56.3933 32.3804C56.3933 32.3804 53.736 28.5281 51.3131 24.2297Z" fill="#CCE4FF"/>
<path d="M47.6211 52.4029C50.1868 53.2469 52.6151 54.461 54.8297 56.0072C58.7355 51.2307 60.8662 45.2493 60.8591 39.0799H49.6934C49.7212 43.6034 49.0217 48.1013 47.6211 52.4029Z" fill="#CCE4FF"/>
<path d="M20.5066 25.759C17.9392 24.9145 15.5093 23.6998 13.2936 22.1525C9.38778 26.929 7.25714 32.9104 7.26369 39.0799H18.4294C18.3977 34.5569 19.0994 30.0579 20.5066 25.759Z" fill="#CCE4FF"/>
<path d="M18.4294 39.0799H7.26369C7.25714 45.2493 9.38778 51.2307 13.2936 56.0072C15.5082 54.461 17.9365 53.2469 20.5022 52.4029C19.1016 48.1013 18.4021 43.6034 18.4294 39.0799Z" fill="#CCE4FF"/>
<path d="M34.0625 39.0799H49.6944C49.7261 34.5569 49.0249 30.0579 47.6178 25.759C43.2491 27.2191 38.6689 27.9469 34.0625 27.9142V39.0799Z" fill="#CCE4FF"/>
<path d="M34.0625 50.2455C38.6689 50.2128 43.2491 50.9407 47.6178 52.4007C49.0195 48.1002 49.7206 43.6028 49.6945 39.0799H34.0625V50.2455Z" fill="#CCE4FF"/>
<path d="M18.4285 39.0799C18.4012 43.6034 19.1007 48.1013 20.5013 52.4029C24.8711 50.9418 29.453 50.2128 34.0604 50.2455V39.0799H18.4285Z" fill="#CCE4FF"/>
<path d="M34.0607 27.9142C29.4549 27.9469 24.8746 27.2191 20.506 25.759C19.0988 30.0579 18.3971 34.5569 18.4288 39.0799H34.0607V27.9142Z" fill="#CCE4FF"/>
<path d="M42.6914 16.7485C44.9142 19.396 46.5879 22.4589 47.6156 25.759C48.8794 25.3299 50.1143 24.8191 51.3116 24.2297C49.7561 21.6509 48.5332 18.8862 47.6718 16.0005C46.5351 15.3152 45.3438 14.7247 44.1095 14.2362V16.7485H42.6914Z" fill="#CCE4FF"/>
<path d="M25.4296 16.7485H19.2662C17.0134 18.2375 14.9994 20.0595 13.293 22.1525C15.5087 23.6998 17.9386 24.9145 20.506 25.759C21.5337 22.4589 23.2074 19.396 25.4296 16.7485Z" fill="#CCE4FF"/>
<path d="M47.6178 25.759C46.5901 22.4589 44.9163 19.396 42.6935 16.7485H34.0625V27.9142C38.6689 27.9469 43.2491 27.2191 47.6178 25.759Z" fill="#CCE4FF"/>
<path d="M34.0606 27.9142V16.7485H25.4296C23.2073 19.396 21.5336 22.4589 20.5059 25.759C24.8745 27.2191 29.4548 27.9469 34.0606 27.9142Z" fill="#CCE4FF"/>
<path d="M34.0625 65.8775C42.1195 65.8868 49.7506 62.2601 54.8308 56.0072C52.6162 54.461 50.1879 53.2469 47.6221 52.4029C44.9245 60.4511 39.8689 65.8775 34.0625 65.8775Z" fill="#CCE4FF"/>
<path d="M20.5016 52.4029C17.9359 53.2469 15.5076 54.461 13.293 56.0072C18.3731 62.2601 26.0043 65.8868 34.0607 65.8775C28.2549 65.8775 23.1992 60.4511 20.5016 52.4029Z" fill="#CCE4FF"/>
<path d="M20.5059 52.4007C23.1991 60.4511 28.2548 65.8775 34.0606 65.8775V50.2455C29.4548 50.2128 24.8745 50.9407 20.5059 52.4007Z" fill="#CCE4FF"/>
<path d="M47.6221 52.4029C43.2524 50.9417 38.6705 50.2128 34.0625 50.2455V65.8775C39.8689 65.8775 44.9245 60.4511 47.6221 52.4029Z" fill="#CCE4FF"/>
<path d="M56.392 18.9816C58.8591 18.9816 60.8583 16.9818 60.8583 14.5154C60.8583 12.0489 58.8591 10.0491 56.392 10.0491C53.9256 10.0491 51.9258 12.0489 51.9258 14.5154C51.9258 16.9818 53.9256 18.9816 56.392 18.9816ZM56.392 12.2822C57.6258 12.2822 58.6252 13.2821 58.6252 14.5154C58.6252 15.7486 57.6258 16.7485 56.392 16.7485C55.1588 16.7485 54.1589 15.7486 54.1589 14.5154C54.1589 13.2821 55.1588 12.2822 56.392 12.2822Z" fill="#1E81CE"/>
<path d="M60.0206 28.8541C62.9526 24.1556 66.4419 17.8651 66.4419 14.5154C66.4545 9.05685 62.1049 4.58785 56.648 4.45319C51.1911 4.31852 46.6256 8.56726 46.3688 14.0198C45.9953 13.8366 45.6104 13.6769 45.2271 13.5117V1.11657C45.2271 0.499947 44.7277 0 44.1106 0H1.68102C1.0644 0 0.564453 0.499947 0.564453 1.11657V16.7485C0.564453 17.3651 1.0644 17.8651 1.68102 17.8651H15.9587C15.7253 18.0641 15.4876 18.2549 15.2608 18.4615C14.2457 19.3862 13.2987 20.3844 12.428 21.447C3.63283 32.2354 4.12896 47.8548 13.592 58.0631C23.055 68.2709 38.5926 69.9474 50.0151 61.9929C50.062 61.9608 50.1067 61.9237 50.1525 61.8915C51.3704 61.0312 52.5175 60.0744 53.5829 59.0309C54.3292 58.2976 55.0342 57.5239 55.695 56.7127C59.7518 51.7307 61.9697 45.5045 61.9757 39.0799C61.9822 35.578 61.3181 32.1073 60.0206 28.8541ZM54.5631 54.4986C52.8098 53.375 50.9397 52.4449 48.9857 51.7241C50.1094 47.9813 50.7173 44.1033 50.7936 40.1964H59.6945C59.4645 45.372 57.6757 50.3573 54.5631 54.4986ZM53.0856 56.3207C52.9586 56.4613 52.8256 56.5966 52.6964 56.734C52.5039 56.9362 52.3142 57.139 52.1168 57.3348C51.9762 57.4743 51.8295 57.6084 51.6856 57.7442C51.4926 57.9274 51.299 58.1106 51.1017 58.2872C50.9485 58.4246 50.7914 58.5549 50.635 58.6879C50.4382 58.8542 50.2419 59.0227 50.0418 59.1803C49.8777 59.3111 49.707 59.436 49.544 59.5624C49.3439 59.714 49.1433 59.8661 48.9389 60.009C48.7671 60.1316 48.5916 60.251 48.4166 60.3693C48.211 60.5078 48.0044 60.6452 47.7945 60.7782C47.6157 60.89 47.4347 61.0012 47.2531 61.113C47.0421 61.2389 46.8295 61.3627 46.6141 61.4837C46.4277 61.5889 46.2401 61.6904 46.0558 61.7907C45.8394 61.9046 45.6213 62.0164 45.4016 62.126C45.2097 62.2197 45.0172 62.3124 44.8242 62.4018C44.6013 62.5043 44.3777 62.6025 44.1542 62.6984C43.959 62.7824 43.7622 62.8663 43.5648 62.9443C43.3348 63.0359 43.1036 63.1204 42.8724 63.2055C42.6729 63.278 42.4739 63.3505 42.2727 63.4186L42.2482 63.4268C44.9578 60.7259 47.0198 57.446 48.2781 53.8329C49.9862 54.4637 51.6256 55.2668 53.1707 56.2302C53.1369 56.2596 53.1124 56.2918 53.0856 56.3207ZM25.262 63.2066C25.0286 63.122 24.7953 63.0359 24.5652 62.9443C24.3689 62.8653 24.1732 62.784 23.9791 62.6995C23.7556 62.6036 23.5304 62.5043 23.3025 62.4018C23.1106 62.3124 22.9182 62.2197 22.7284 62.126C22.5054 62.018 22.2857 61.9063 22.0698 61.7907C21.8823 61.6909 21.6964 61.5895 21.5115 61.4859C21.2962 61.3654 21.083 61.2406 20.8704 61.1141C20.6888 61.0023 20.5078 60.8911 20.329 60.7793C20.1191 60.6463 19.9114 60.5089 19.7058 60.3693C19.5308 60.251 19.3575 60.1327 19.1857 60.0111C18.9802 59.865 18.7779 59.7129 18.5773 59.5646C18.411 59.4392 18.242 59.3133 18.0828 59.1835C17.8816 59.0227 17.6837 58.8564 17.4874 58.6901C17.331 58.5571 17.175 58.4268 17.0218 58.2905C16.8228 58.1138 16.6298 57.9307 16.4368 57.748C16.2929 57.6117 16.1473 57.4776 16.0067 57.338C15.8093 57.1412 15.6185 56.9384 15.426 56.7361C15.2968 56.5987 15.1649 56.4646 15.0378 56.324C15.0106 56.294 14.9861 56.2629 14.9593 56.2335C16.5044 55.2701 18.1438 54.467 19.8525 53.8362C21.1103 57.4492 23.1722 60.7292 25.8819 63.4301L25.8562 63.4219C25.6572 63.3505 25.4642 63.2791 25.262 63.2066ZM13.5593 23.6611C15.3099 24.782 17.1767 25.7116 19.1263 26.4323C18.0125 30.1779 17.41 34.0564 17.3342 37.9633H8.42895C8.65957 32.7877 10.4478 27.803 13.5593 23.6611ZM15.2107 21.6624C15.3568 21.5037 15.5067 21.3489 15.6572 21.1946C15.9151 20.9291 16.1779 20.6685 16.4466 20.4133C16.602 20.2656 16.7574 20.1195 16.9155 19.9766C17.2061 19.7166 17.5032 19.4663 17.8091 19.2204C17.9519 19.1032 18.0915 18.9827 18.2365 18.8688C18.683 18.5182 19.1421 18.1802 19.611 17.864H23.1482C21.7771 19.8671 20.6654 22.0359 19.84 24.3186C18.14 23.6905 16.5077 22.8924 14.9686 21.9361C15.0509 21.8456 15.1284 21.7507 15.2107 21.6613V21.6624ZM42.18 17.8651C43.9039 20.0192 45.2549 22.4464 46.1785 25.0459C42.6075 26.1194 38.9067 26.7017 35.178 26.7764V17.8651H42.18ZM45.2271 16.7485V15.9443C45.7315 16.188 46.2232 16.4487 46.7024 16.7262C46.7183 16.7818 46.739 16.8445 46.7559 16.9017C46.7897 17.0222 46.8273 17.146 46.8676 17.2708C46.9145 17.4218 46.9636 17.575 47.017 17.7321C47.0574 17.8514 47.0988 17.9714 47.1435 18.0941L47.1948 18.238C47.2427 18.3667 47.294 18.5002 47.3458 18.6333C47.397 18.7663 47.457 18.9304 47.5241 19.0798C47.5944 19.251 47.6691 19.4271 47.7476 19.6048C47.7645 19.6435 47.7787 19.6817 47.7967 19.7166L47.8512 19.848C47.885 19.9254 47.9215 20.0044 47.9575 20.0824C48.0387 20.2656 48.1271 20.4564 48.2154 20.6407C48.2944 20.8108 48.3718 20.976 48.4553 21.1521C48.5147 21.2775 48.5785 21.4056 48.6417 21.5343C48.6897 21.6324 48.7399 21.7327 48.7906 21.8336C48.8663 21.9862 48.9389 22.1362 49.0135 22.2921C49.1329 22.5276 49.2627 22.7735 49.3908 23.0167C49.4759 23.1775 49.5555 23.3329 49.6433 23.497L49.725 23.648C49.737 23.6704 49.7463 23.69 49.7583 23.7123C49.2861 23.9212 48.7769 24.1 48.2803 24.2886C47.4205 21.9132 46.2467 19.6631 44.791 17.5985C45.0581 17.3962 45.219 17.0833 45.2271 16.7485ZM21.2368 27.164C25.0368 28.3122 28.9764 28.9332 32.9449 29.0095V37.9633H19.5674C19.6421 34.3056 20.2031 30.6734 21.2368 27.164ZM32.9449 40.1964V49.1502C28.9677 49.2266 25.0193 49.8503 21.2122 51.0039C20.1894 47.4896 19.635 43.8558 19.5619 40.1964H32.9449ZM32.9449 51.3834V64.677C28.3336 64.0532 24.3209 59.6055 21.9177 53.122C25.4975 52.0436 29.2076 51.4586 32.9449 51.3834ZM35.178 51.3834C38.9159 51.4586 42.626 52.0436 46.2058 53.122C43.8025 59.6044 39.7899 64.0532 35.178 64.677V51.3834ZM46.9113 51.0039C43.1036 49.8503 39.1558 49.2266 35.178 49.1502V40.1964H48.5616C48.4885 43.8558 47.9335 47.4896 46.9113 51.0039ZM35.178 37.9633V29.0095C39.1471 28.9326 43.0867 28.3116 46.8867 27.164C47.9204 30.6734 48.482 34.3056 48.5561 37.9633H35.178ZM32.9449 26.7764C29.2168 26.7017 25.516 26.1194 21.945 25.0459C22.8685 22.4464 24.2201 20.0197 25.9429 17.8651H32.9449V26.7764ZM17.3299 40.1964C17.4062 44.1033 18.0141 47.9813 19.1377 51.7241C17.1816 52.4438 15.3099 53.3744 13.5549 54.4986C10.4445 50.3562 8.65738 45.3715 8.42895 40.1964H17.3299ZM50.7893 37.9633C50.7135 34.0564 50.1105 30.1773 48.9972 26.4312C49.6313 26.1908 50.2484 25.9357 50.8481 25.6652C53.1205 29.5934 55.4485 32.978 55.4742 33.0145C55.6824 33.3166 56.0259 33.497 56.3928 33.497C56.7592 33.497 57.1027 33.3171 57.3109 33.0156L57.5007 32.7376L57.5306 32.6939L57.716 32.4197L57.8589 32.2038C57.9543 32.0621 58.0568 31.9083 58.1718 31.7328L58.4095 31.3713L58.5098 31.217C59.2115 33.4011 59.6117 35.6707 59.7005 37.9633H50.7893ZM56.3928 6.6994C60.7075 6.70431 64.2039 10.2007 64.2088 14.5154C64.2088 16.6847 61.9882 21.4874 58.1238 27.6765L58.0322 27.8215C57.9728 27.9142 57.915 28.0047 57.8234 28.1388C57.2788 29.0117 56.7859 29.7766 56.3928 30.3719C55.4125 28.8836 53.796 26.3587 52.2875 23.6824C50.7669 21.187 49.5773 18.5046 48.7491 15.7023C48.6592 15.3719 48.6046 15.0333 48.5861 14.692C48.5861 14.6686 48.5796 14.5366 48.5768 14.5132C48.5834 10.1996 52.0792 6.70431 56.3928 6.6994ZM2.79759 2.23313H42.994V15.6319H2.79759V2.23313Z" fill="#1E81CE"/>
<path d="M12.8472 4.46628H6.14782C5.5312 4.46628 5.03125 4.96623 5.03125 5.58285V12.2822C5.03125 12.8989 5.5312 13.3988 6.14782 13.3988H12.8472C13.4644 13.3988 13.9638 12.8989 13.9638 12.2822V5.58285C13.9638 4.96623 13.4644 4.46628 12.8472 4.46628ZM11.7307 11.1657H7.26439V6.69941H11.7307V11.1657Z" fill="#1E81CE"/>
<path d="M17.3119 7.81597H39.6432C40.2604 7.81597 40.7598 7.31603 40.7598 6.69941C40.7598 6.08279 40.2604 5.58284 39.6432 5.58284H17.3119C16.6953 5.58284 16.1953 6.08279 16.1953 6.69941C16.1953 7.31603 16.6953 7.81597 17.3119 7.81597Z" fill="#1E81CE"/>
<path d="M20.6616 11.1657C20.6616 10.549 20.1622 10.0491 19.545 10.0491H17.3119C16.6953 10.0491 16.1953 10.549 16.1953 11.1657C16.1953 11.7823 16.6953 12.2822 17.3119 12.2822H19.545C20.1622 12.2822 20.6616 11.7823 20.6616 11.1657Z" fill="#1E81CE"/>
<path d="M26.2462 10.0491H24.0131C23.3964 10.0491 22.8965 10.549 22.8965 11.1657C22.8965 11.7823 23.3964 12.2822 24.0131 12.2822H26.2462C26.8634 12.2822 27.3628 11.7823 27.3628 11.1657C27.3628 10.549 26.8634 10.0491 26.2462 10.0491Z" fill="#1E81CE"/>
<path d="M32.9454 10.0491H30.7123C30.0957 10.0491 29.5957 10.549 29.5957 11.1657C29.5957 11.7823 30.0957 12.2822 30.7123 12.2822H32.9454C33.5626 12.2822 34.062 11.7823 34.062 11.1657C34.062 10.549 33.5626 10.0491 32.9454 10.0491Z" fill="#1E81CE"/>
<path d="M39.6446 10.0491H37.4115C36.7949 10.0491 36.2949 10.549 36.2949 11.1657C36.2949 11.7823 36.7949 12.2822 37.4115 12.2822H39.6446C40.2618 12.2822 40.7612 11.7823 40.7612 11.1657C40.7612 10.549 40.2618 10.0491 39.6446 10.0491Z" fill="#1E81CE"/>
</g>
<defs>
<clipPath id="clip0">
<rect width="67" height="67" fill="white"/>
</clipPath>
</defs>
</svg>
